<svg width="720" height="515" viewBox="0 0 720 515" fill="none" xmlns="http://www.w3.org/2000/svg">
<path d="M154.954 1.00488C209.056 0.893133 282.925 0.841 363.5 0.875L656.43 0.999023L664.365 3.2207C676.093 6.50455 689.183 13.3282 696.481 19.9385C703.04 25.8778 710.447 36.0932 713.937 43.9414L714.263 44.6934C715.646 47.9793 716.635 49.8114 717.376 54.0156C718.121 58.2464 718.608 64.8668 718.924 77.6641C719.554 103.248 719.497 153.397 719.493 258.207C719.489 353.661 719.482 402.008 719.223 427.54C718.965 453.086 718.455 455.75 717.466 459.883C714.635 471.711 709.559 481.416 701.871 489.72C691.936 500.45 680.188 507.503 664.999 511.839L657.427 514L363.5 514.161C242.001 514.228 168.179 514.21 123.963 514.036C101.854 513.949 87.1498 513.823 77.5886 513.648C68.0028 513.474 63.6311 513.251 62.1423 512.981C35.9361 508.231 13.7322 490.985 5.60034 469.155C4.3002 465.665 3.36573 463.687 2.66675 459.394C1.96425 455.079 1.50405 448.434 1.2019 435.67C0.597841 410.151 0.627836 360.283 0.579834 255.929C0.535833 160.356 0.522685 111.682 0.764404 85.9453C1.00632 60.1881 1.50561 57.4508 2.46558 53.6982C5.43162 42.1 10.6383 33.1334 19.8562 23.7793C32.3488 11.0999 46.8592 3.943 65.0671 1.4873C65.2205 1.46669 65.8831 1.44179 67.0906 1.41699C68.2775 1.39262 69.9525 1.36797 72.0906 1.34473C76.3663 1.29825 82.4898 1.25501 90.2576 1.21387C105.793 1.13159 127.903 1.06076 154.954 1.00488ZM447.169 273.673L435.169 284.297C398.509 316.755 388.914 323.146 371.333 327.057C361.892 329.157 352.783 328.632 342.613 325.37L341.625 325.046L340.267 324.583C326.492 319.817 320.267 315.108 278.51 278.877L273.191 274.262L272.839 273.957L272.51 274.286L173.079 373.714C145.735 401.057 120.876 425.999 102.853 444.157C93.8421 453.236 86.5391 460.62 81.489 465.76C78.9643 468.329 77.0016 470.339 75.6697 471.72C75.0041 472.41 74.4943 472.945 74.1501 473.314C73.9786 473.499 73.8446 473.646 73.7527 473.751C73.7077 473.803 73.6672 473.85 73.6365 473.89C73.6218 473.909 73.6027 473.935 73.5847 473.964C73.576 473.978 73.5616 474.002 73.5476 474.032C73.5409 474.047 73.4999 474.132 73.4998 474.247C73.5183 474.383 73.6232 474.576 73.6843 474.636C73.7227 474.664 73.7888 474.703 73.8162 474.715C73.8637 474.734 73.9059 474.744 73.9226 474.747C73.9636 474.755 74.0075 474.761 74.0427 474.765C74.1184 474.772 74.2231 474.779 74.3494 474.785C74.6047 474.798 74.9813 474.812 75.4734 474.824C76.4595 474.85 77.9245 474.874 79.8416 474.898C83.6762 474.947 89.329 474.995 96.6033 475.04C111.153 475.13 132.194 475.21 158.158 475.278C210.087 475.415 281.712 475.5 360.5 475.5C439.287 475.5 510.913 475.415 562.842 475.278C588.806 475.21 609.847 475.13 624.396 475.04C631.671 474.995 637.324 474.947 641.159 474.898C643.076 474.874 644.54 474.85 645.526 474.824C646.018 474.812 646.396 474.798 646.651 474.785C646.777 474.779 646.881 474.772 646.957 474.765C646.992 474.761 647.036 474.755 647.077 474.747C647.093 474.744 647.136 474.735 647.184 474.715C647.212 474.703 647.278 474.664 647.316 474.636C647.377 474.576 647.481 474.383 647.5 474.247C647.5 474.132 647.459 474.047 647.452 474.032C647.438 474.002 647.423 473.977 647.415 473.963C647.397 473.934 647.378 473.909 647.363 473.89C647.332 473.85 647.292 473.802 647.247 473.75C647.155 473.644 647.02 473.497 646.848 473.312C646.503 472.942 645.992 472.406 645.324 471.714C643.988 470.329 642.019 468.313 639.486 465.736C634.42 460.581 627.093 453.176 618.053 444.07C599.973 425.858 575.035 400.842 547.603 373.418L447.853 273.694L447.521 273.361L447.169 273.673ZM679.516 64.6201C679.497 64.6299 679.482 64.6394 679.472 64.6455C679.453 64.6578 679.436 64.6698 679.424 64.6787C679.399 64.6971 679.371 64.7193 679.343 64.7422C679.285 64.7891 679.208 64.8553 679.115 64.9365C678.927 65.0997 678.66 65.3358 678.325 65.6367C677.654 66.2393 676.7 67.1058 675.536 68.1709C673.207 70.3015 670.029 73.2317 666.564 76.4463C659.637 82.8733 650.216 91.5053 645.63 95.6279C641.041 99.7537 629.591 110.104 620.187 118.629C594.858 141.59 528.536 201.123 501.668 225.017C488.745 236.508 477.75 246.29 477.232 246.755V246.756C477.052 246.918 477.056 247.127 477.064 247.2C477.073 247.283 477.099 247.348 477.113 247.381C477.144 247.452 477.187 247.521 477.224 247.576C477.304 247.694 477.424 247.848 477.573 248.028C477.874 248.394 478.335 248.916 478.944 249.586C480.165 250.928 482.001 252.881 484.402 255.392C489.204 260.415 496.273 267.682 505.205 276.783C523.07 294.986 548.395 320.528 577.963 350.135L679.646 451.949L680.5 452.804V258.298C680.5 205.141 680.472 156.823 680.427 121.799C680.404 104.287 680.377 90.0978 680.347 80.2891C680.332 75.385 680.317 71.575 680.301 68.9922C680.292 67.7011 680.284 66.7153 680.275 66.0527C680.271 65.7218 680.267 65.4689 680.262 65.2988C680.26 65.2147 680.258 65.1469 680.256 65.0986C680.254 65.076 680.253 65.0493 680.251 65.0254C680.25 65.0162 680.247 64.9903 680.241 64.9609C680.237 64.9419 680.219 64.8907 680.206 64.8574C680.165 64.7864 679.946 64.6267 679.722 64.5869L679.627 64.5781C679.571 64.5923 679.53 64.613 679.516 64.6201ZM40.7908 64.5C40.6355 64.5247 40.432 64.6515 40.3777 64.7178C40.3545 64.7548 40.3243 64.8163 40.3152 64.8408C40.301 64.8822 40.2949 64.9183 40.2927 64.9307C40.2872 64.9627 40.2841 64.9961 40.282 65.0205C40.2774 65.0736 40.273 65.1453 40.2693 65.2305C40.2617 65.404 40.2551 65.6596 40.2478 65.9922C40.2331 66.6587 40.2184 67.6485 40.2039 68.9434C40.1747 71.5335 40.1454 75.3516 40.1169 80.2646C40.0601 90.0916 40.0052 104.303 39.9558 121.839C39.8569 156.911 39.7788 205.286 39.7458 258.499C39.7128 311.712 39.7723 360.087 39.8943 395.16C39.9553 412.696 40.0322 426.908 40.1208 436.735C40.1652 441.649 40.2125 445.468 40.2625 448.06C40.2874 449.355 40.3132 450.347 40.3396 451.016C40.3527 451.349 40.3664 451.608 40.3806 451.786C40.3875 451.873 40.3951 451.952 40.405 452.015C40.4094 452.042 40.4172 452.088 40.4324 452.136C40.4388 452.156 40.4565 452.209 40.4929 452.266C40.5114 452.295 40.6435 452.5 40.9187 452.5C40.9887 452.495 41.0917 452.469 41.1277 452.455C41.1498 452.445 41.1844 452.427 41.2009 452.417C41.2321 452.398 41.2605 452.377 41.282 452.36C41.3271 452.326 41.3814 452.281 41.4402 452.23C41.5598 452.127 41.7251 451.976 41.9324 451.783C42.3484 451.396 42.9479 450.824 43.7166 450.08C45.2546 448.592 47.479 446.411 50.2908 443.637C55.9152 438.087 63.8933 430.157 73.4373 420.641C92.5254 401.607 117.88 376.219 143.198 350.802C168.516 325.385 193.799 299.939 212.747 280.789C222.221 271.214 230.111 263.212 235.631 257.575C238.39 254.757 240.557 252.528 242.034 250.989C242.772 250.22 243.34 249.622 243.722 249.207C243.913 249 244.062 248.836 244.164 248.717C244.214 248.659 244.258 248.605 244.292 248.56C244.308 248.538 244.329 248.508 244.348 248.476C244.359 248.458 244.378 248.42 244.388 248.396C244.403 248.354 244.426 248.232 244.424 248.149V248.148L244.407 248.063C244.385 247.985 244.352 247.932 244.344 247.92C244.324 247.885 244.301 247.853 244.282 247.828C244.244 247.778 244.195 247.721 244.141 247.662C244.032 247.542 243.877 247.382 243.681 247.187C243.289 246.795 242.717 246.244 241.987 245.554C240.525 244.172 238.418 242.222 235.823 239.847C230.632 235.096 223.483 228.64 215.63 221.627C199.926 207.602 174.648 184.93 159.457 171.244C144.265 157.558 127.785 142.736 122.834 138.308C117.886 133.882 109.337 126.129 103.839 121.08C99.7124 117.291 93.2226 111.391 87.5535 106.268L82.2761 101.511C75.9191 95.8016 64.156 85.1674 56.1355 77.8799C52.1238 74.2348 48.4282 70.9201 45.7058 68.5166C44.345 67.3152 43.2253 66.3399 42.4304 65.6641C42.0336 65.3267 41.7142 65.0613 41.4851 64.8789C41.3716 64.7886 41.2748 64.7138 41.199 64.6602C41.162 64.634 41.1209 64.6066 41.0818 64.584C41.0627 64.573 41.0346 64.5579 41.0017 64.5439C40.9881 64.5382 40.9383 64.5155 40.8679 64.5049L40.7908 64.5ZM73.6785 41.3633L81.4177 48.6787C89.7443 56.55 106.677 72.0475 129.746 92.9111C137.676 100.084 151.364 112.476 160.164 120.45C176.644 135.384 243.257 195.369 252.249 203.373C255.027 205.846 262.234 212.369 268.263 217.869C274.294 223.37 283.482 231.695 288.684 236.371C293.884 241.045 300.619 247.171 303.648 249.981C306.684 252.798 316.488 261.649 325.434 269.649C334.685 277.921 339.919 282.402 344.495 284.796C349.118 287.215 353.059 287.5 359.641 287.5C365.306 287.5 369.646 286.922 373.704 285.321C377.759 283.722 381.494 281.115 385.971 277.117C395.027 269.032 450.318 219.984 456.825 214.265C459.575 211.848 464.303 207.598 467.333 204.819C470.357 202.046 478.673 194.623 485.813 188.325C492.955 182.026 503.782 172.372 509.877 166.871C512.923 164.121 517.767 159.754 523.117 154.935L539.394 140.281C575.261 108.013 602.211 83.6736 620.204 67.3008C629.2 59.1149 635.957 52.9191 640.471 48.7188C642.728 46.6189 644.427 45.0156 645.564 43.9111C646.132 43.3595 646.563 42.9279 646.856 42.6201C647.002 42.4672 647.119 42.3393 647.203 42.2383C647.244 42.1886 647.284 42.1363 647.317 42.0869C647.333 42.0624 647.353 42.0301 647.371 41.9932C647.385 41.9647 647.419 41.8921 647.427 41.7959L647.427 41.7949C647.419 41.6523 647.324 41.4407 647.26 41.373C647.22 41.3405 647.15 41.2986 647.121 41.2852C647.071 41.2638 647.026 41.2534 647.01 41.25C646.968 41.2414 646.924 41.236 646.889 41.2324C646.814 41.2246 646.71 41.2184 646.585 41.2119C646.33 41.1988 645.955 41.1855 645.464 41.1729C644.48 41.1476 643.018 41.123 641.103 41.0986C637.273 41.0499 631.624 41.0028 624.354 40.958C609.814 40.8683 588.782 40.7877 562.825 40.7197C510.911 40.5839 439.296 40.5 360.511 40.5H72.7654L73.6785 41.3633Z" fill="#CBAC51" stroke="#EEA926"/>
</svg>
