<svg width="715" height="718" viewBox="0 0 715 718" fill="none" xmlns="http://www.w3.org/2000/svg">
<path d="M340.58 0.924805C347.012 0.907067 355.335 0.93984 363.995 1.02832C396.833 1.36509 408.109 2.42586 432.237 7.4375C471.698 15.633 514.358 32.9458 549.789 55.1475C581.912 75.2762 611.213 101.684 637.558 134.261C644.539 142.893 652.709 154.42 658.964 164.062C662.092 168.884 664.735 173.226 666.511 176.494C667.399 178.13 668.064 179.484 668.463 180.488C668.663 180.992 668.79 181.391 668.848 181.684C668.877 181.83 668.885 181.934 668.883 182.002C668.882 182.031 668.878 182.048 668.877 182.056C668.785 182.207 668.708 182.363 668.668 182.514C668.636 182.634 668.578 182.937 668.803 183.175C669.036 183.421 669.349 183.369 669.473 183.337C669.554 183.316 669.636 183.284 669.718 183.245C669.848 183.376 670.028 183.602 670.259 183.932C670.735 184.614 671.368 185.659 672.121 187.001C673.625 189.681 675.584 193.496 677.7 197.836C681.934 206.516 686.782 217.267 689.854 225.181C693.021 233.343 695.992 241.849 698.1 248.577C699.154 251.942 699.991 254.856 700.529 257.057C700.798 258.158 700.991 259.072 701.099 259.771C701.153 260.121 701.184 260.41 701.194 260.637C701.205 260.873 701.192 261.006 701.177 261.064H701.176C701.04 261.584 700.991 262.096 701.12 262.469C701.189 262.668 701.341 262.908 701.637 262.996C701.916 263.079 702.174 262.978 702.354 262.866L702.355 262.867C702.439 262.816 702.516 262.774 702.583 262.741C702.623 262.936 702.678 263.194 702.746 263.511C702.897 264.213 703.115 265.205 703.385 266.411C703.924 268.825 704.667 272.103 705.484 275.664C715.545 319.497 716.995 362.591 710.012 410.401C699.195 484.461 664.08 554.762 610.807 609.006C579.054 641.338 548.895 663.075 509.479 682.041C478.402 696.996 449.645 706.043 412.915 712.418C324.737 727.721 229.279 705.48 154.562 652.217C91.2277 607.067 41.7721 539.566 18.0742 465.928C15.534 458.035 12.546 446.905 10.2783 437.42C9.14464 432.678 8.19216 428.353 7.56641 425.054C7.2534 423.403 7.02312 422.016 6.89258 420.964C6.82728 420.438 6.78767 420.002 6.77441 419.664C6.76059 419.311 6.7783 419.11 6.80078 419.023C6.94494 418.472 6.97767 417.916 6.89941 417.454C6.8326 417.06 6.65049 416.565 6.20898 416.36C6.19443 416.339 6.17119 416.305 6.14355 416.25C6.06979 416.103 5.98309 415.875 5.88672 415.559C5.69519 414.929 5.48636 414.017 5.26562 412.852C4.82492 410.525 4.34675 407.242 3.87109 403.314C2.9201 395.461 1.98087 385.059 1.3584 374.636C-3.00305 301.641 18.8399 221.249 59.7383 159.776C74.5091 137.575 98.4602 109.561 116.544 93.3301C177.243 38.8491 243.378 10.0826 328.553 1.12402C329.621 1.01197 334.129 0.942598 340.58 0.924805ZM389.83 34.0303C371.97 32.1769 341.779 32.2011 325.941 34.0859C259.663 41.9703 203.499 64.9885 154.188 104.486C139.025 116.631 117.661 137.875 106.216 152.188C66.1292 202.318 43.4402 256.843 35.3652 322.438C34.3875 330.382 33.973 344.764 34.0723 359.091C34.1715 373.417 34.7847 387.741 35.8721 395.568C45.6412 465.905 72.2319 524.253 118.027 575.831C166.755 630.711 233.143 668.059 303.914 680.396C324.365 683.961 335.057 684.85 357.001 684.812C408.254 684.721 451.023 674.904 497.217 652.627C566.472 619.228 621.257 562.181 653.845 489.548C681.425 428.073 689.209 359.806 676.019 295.041C669.398 262.536 660.071 236.22 644.556 206.27C619.39 157.689 584.28 118.58 538.583 88.2266C491.274 56.8026 444.287 39.682 389.83 34.0303ZM208.154 114.119C209.703 113.617 212.387 113.472 215.348 113.667C218.293 113.861 221.437 114.386 223.879 115.175C228.326 116.611 231.613 118.6 235.387 123.094C239.186 127.618 243.468 134.669 249.88 146.242C256.128 157.52 268.674 179.796 277.762 195.747C299.884 234.576 302.04 238.644 304.562 246.158C308.174 256.92 305.649 269.605 298.106 278.525C297.356 279.412 295.299 281.337 292.557 283.742C289.826 286.137 286.447 288.981 283.08 291.696C276.327 297.141 272.442 300.419 270.251 302.873C269.149 304.107 268.454 305.157 268.039 306.193C267.622 307.235 267.5 308.231 267.5 309.333C267.5 311.304 268.499 314.045 270.362 317.472C272.237 320.92 275.03 325.134 278.705 330.077C286.057 339.965 296.974 352.811 311.249 368.338C337.918 397.345 362.65 420.151 387.744 438.868C393.171 442.916 396.906 445.452 399.762 446.855C402.635 448.268 404.677 448.562 406.688 448.058C407.665 447.812 408.865 447.144 410.225 446.156C411.596 445.16 413.17 443.81 414.9 442.153C418.362 438.84 422.473 434.278 426.868 428.825C434.48 419.381 440.136 413.433 445.453 409.846C450.742 406.277 455.714 405.032 461.999 405.046C466.765 405.056 470.198 405.554 475.733 408.118C481.306 410.7 488.987 415.365 502.233 423.729C531.874 442.445 580.81 474.271 587.792 479.37C594.605 484.347 598.871 490.096 600.581 496.345C602.29 502.59 601.462 509.396 597.975 516.523C594.174 524.293 585.094 536.244 574.911 547.662C564.731 559.076 553.506 569.893 545.451 575.41C535.597 582.159 521.55 588.798 511.371 591.521C500.394 594.46 481.697 595.179 468.576 593.158C433.301 587.725 382.695 565.182 341.638 536.579C289.387 500.177 237.753 450.537 200.296 400.696C161.412 348.958 137.968 300.556 128.435 252.402C127.238 246.355 126.235 235.26 125.758 225.66C125.52 220.864 125.413 216.455 125.479 213.251C125.511 211.646 125.587 210.359 125.707 209.48C125.768 209.037 125.836 208.725 125.904 208.536C125.913 208.512 125.924 208.492 125.932 208.476C126.166 208.422 126.351 208.277 126.479 208.106C126.635 207.901 126.728 207.642 126.783 207.38C126.895 206.85 126.881 206.165 126.743 205.444C126.484 204.089 126.754 201.816 127.478 198.936C128.195 196.079 129.337 192.7 130.756 189.175C133.596 182.119 137.524 174.527 141.316 169.411C146.668 162.193 160.122 149.089 172.691 138.03C178.97 132.506 185.012 127.506 189.689 124.021C192.03 122.276 194.016 120.919 195.515 120.066C196.266 119.639 196.875 119.349 197.334 119.196C197.564 119.12 197.736 119.086 197.858 119.078C197.922 119.074 197.96 119.078 197.98 119.082L197.995 119.084C198.159 119.186 198.329 119.271 198.491 119.313C198.618 119.346 198.939 119.402 199.176 119.148C199.402 118.905 199.341 118.596 199.307 118.474C199.263 118.315 199.178 118.149 199.077 117.984C199.087 117.96 199.117 117.902 199.208 117.809C199.431 117.581 199.876 117.284 200.619 116.919C202.09 116.196 204.541 115.289 208.154 114.119ZM211.424 144.714C211.305 144.737 211.179 144.777 211.052 144.824C210.797 144.92 210.493 145.065 210.155 145.249C209.477 145.618 208.61 146.164 207.618 146.843C205.632 148.202 203.11 150.115 200.53 152.253C193.404 158.157 184.643 166.427 177.268 173.972C173.58 177.744 170.234 181.339 167.61 184.37C164.998 187.388 163.069 189.882 162.246 191.441C155.539 204.151 153.85 221.349 156.903 241.652C159.958 261.963 167.765 285.429 180.108 310.719C196.513 344.326 225.595 386.801 254.12 418.82C299.471 469.728 356.724 515.946 403.276 539.206C449.305 562.204 486.076 569.602 511.426 560.759C517.614 558.6 522.341 556.482 526.924 553.551C531.503 550.622 535.922 546.891 541.503 541.525C546.756 536.474 553.01 529.505 558.245 523.096C560.863 519.891 563.23 516.821 565.092 514.196C566.945 511.583 568.322 509.378 568.934 507.913C569.262 507.127 569.515 506.488 569.681 505.955C569.846 505.424 569.937 504.96 569.915 504.532C569.868 503.622 569.316 503.037 568.544 502.354C568.271 502.112 567.363 501.465 565.968 500.503C564.555 499.529 562.607 498.208 560.219 496.604C555.442 493.394 548.9 489.046 541.352 484.06C526.254 474.087 507.124 461.56 490.016 450.478C483.67 446.367 477.619 442.56 472.981 439.735C470.663 438.323 468.695 437.156 467.22 436.318C466.482 435.9 465.864 435.562 465.385 435.316C464.925 435.081 464.543 434.905 464.307 434.846C463.407 434.62 462.59 434.493 461.738 434.654C460.883 434.816 460.051 435.255 459.086 436.049C457.182 437.615 454.604 440.698 450.122 446.265C437.731 461.652 429.169 469.741 421.266 473.631C417.952 475.261 416.144 476.085 413.931 476.511C411.979 476.886 409.7 476.953 405.797 476.944L404.021 476.937L402.888 476.927C397.355 476.86 393.811 476.523 390.14 475.194C386.207 473.771 382.098 471.2 375.261 466.517C340.621 442.792 284.831 387.834 255.164 348.2C239.78 327.65 235.114 314.825 237.906 301.546C239.062 296.052 240.529 292.054 243.285 288.097C246.051 284.125 250.133 280.168 256.567 274.788C261.659 270.531 267.933 265.033 270.51 262.567L275.174 258.105L275.396 257.894L275.307 257.601L274.009 253.289C273.708 252.29 272.725 250.198 270.869 246.646C269.003 243.075 266.232 237.985 262.326 230.962C254.514 216.915 242.153 195.123 223.39 162.252C220.718 157.571 218.114 153.278 216.072 150.132C215.052 148.56 214.168 147.267 213.482 146.354C213.141 145.899 212.842 145.529 212.596 145.264C212.473 145.132 212.355 145.016 212.245 144.927C212.152 144.851 212.002 144.741 211.822 144.705C211.678 144.676 211.536 144.692 211.424 144.714ZM702.505 262.302C702.502 262.281 702.5 262.261 702.5 262.243C702.5 262.264 702.503 262.284 702.505 262.302Z" fill="#CBAC51" stroke="#EEA926"/>
</svg>
