<svg width="602" height="593" viewBox="0 0 602 593" fill="none" xmlns="http://www.w3.org/2000/svg">
<path d="M176.015 1.54785C208.455 0.588166 378.552 0.574508 416.988 1.52832C451.014 2.37294 462.9 3.63271 482.479 8.44922C502.787 13.4447 521.639 22.1175 537.203 33.6172C541.993 37.1556 548.945 43.4699 554.588 49.1006C557.408 51.9147 559.891 54.5487 561.607 56.5703C562.466 57.5832 563.122 58.4299 563.531 59.0625C563.738 59.3811 563.868 59.6252 563.933 59.7969C563.953 59.8497 563.963 59.8884 563.969 59.9141C563.87 60.0814 563.788 60.2384 563.737 60.3809C563.707 60.4626 563.681 60.557 563.672 60.6562C563.664 60.7509 563.667 60.8983 563.749 61.0439C563.843 61.2104 563.998 61.3023 564.151 61.334C564.284 61.3616 564.406 61.3425 564.49 61.3213C564.62 61.2886 564.756 61.2259 564.891 61.1504C564.953 61.1833 565.047 61.242 565.172 61.3438C565.482 61.5954 565.898 62.0189 566.406 62.6064C567.415 63.7756 568.732 65.5256 570.215 67.6572C573.178 71.9173 576.776 77.6619 579.859 83.2412C587.22 96.5605 594.016 117.651 596.985 136.431C600.083 156.021 600.526 176.06 600.532 298C600.538 435.925 600.225 443.993 593.985 470.385C592.174 478.046 589.217 487.526 586.514 494.969C585.162 498.691 583.878 501.892 582.837 504.095C582.315 505.2 581.862 506.034 581.502 506.554C581.339 506.79 581.211 506.933 581.123 507.01C580.984 506.956 580.83 506.932 580.667 506.962C580.438 507.004 580.264 507.138 580.145 507.289C579.919 507.575 579.833 507.987 579.833 508.399C579.833 508.59 579.776 508.893 579.635 509.32C579.497 509.739 579.291 510.242 579.022 510.822C578.484 511.982 577.708 513.415 576.762 515.023C574.87 518.238 572.317 522.121 569.68 525.854C567.042 529.586 564.326 533.157 562.113 535.752C561.004 537.051 560.032 538.095 559.263 538.789C558.877 539.137 558.558 539.384 558.31 539.531C558.186 539.605 558.094 539.646 558.031 539.665C558.001 539.674 557.985 539.675 557.979 539.676C557.774 539.627 557.582 539.599 557.41 539.598C557.252 539.597 557.029 539.618 556.843 539.75C556.738 539.825 556.645 539.936 556.6 540.084C556.556 540.227 556.569 540.363 556.6 540.47C556.649 540.639 556.756 540.783 556.865 540.901C556.862 540.938 556.853 541.001 556.82 541.097C556.736 541.337 556.556 541.668 556.283 542.07C555.743 542.868 554.903 543.847 553.982 544.782C553.061 545.717 552.079 546.586 551.259 547.168C550.847 547.461 550.496 547.667 550.227 547.777C550.092 547.832 549.998 547.855 549.941 547.86C549.929 547.861 549.921 547.86 549.915 547.86C549.769 547.772 549.616 547.698 549.467 547.661C549.339 547.63 549.018 547.583 548.79 547.847C548.582 548.089 548.643 548.383 548.676 548.502C548.71 548.622 548.77 548.745 548.839 548.869C548.811 548.941 548.752 549.054 548.644 549.211C548.411 549.548 548.021 550.001 547.485 550.553C546.418 551.651 544.832 553.082 542.946 554.66C539.174 557.815 534.238 561.526 529.925 564.3C521.315 569.836 506.035 577.056 494.838 580.875C473.999 587.984 458.573 590.171 418.989 591.595C398.937 592.316 336.387 592.478 277.056 592.253C247.393 592.141 218.538 591.932 196.209 591.648C173.86 591.364 158.091 591.005 154.558 590.597C106.626 585.055 74.14 571.253 48.4143 545.572C42.4984 539.667 35.4678 530.872 30.1282 523.206C27.4585 519.373 25.2203 515.835 23.7581 513.092C23.0258 511.718 22.4976 510.559 22.2043 509.672C22.0576 509.228 21.9756 508.87 21.9514 508.598C21.9263 508.314 21.9699 508.191 21.9924 508.154C22.1108 507.963 22.2051 507.782 22.2629 507.619C22.2918 507.538 22.3175 507.446 22.3264 507.349C22.3349 507.256 22.3322 507.117 22.261 506.977C22.1794 506.816 22.038 506.713 21.8821 506.671C21.7458 506.635 21.6199 506.65 21.5334 506.669C21.381 506.703 21.2241 506.779 21.0745 506.867C21.066 506.863 21.0548 506.859 21.0422 506.852C20.9298 506.785 20.7607 506.634 20.5383 506.359C20.1002 505.817 19.561 504.928 18.9465 503.733C17.7225 501.353 16.2479 497.86 14.7209 493.774C11.6679 485.606 8.42628 475.126 6.57446 466.568C1.31665 442.27 1.28344 441.485 0.78833 309.185C0.303236 179.825 0.739085 159.782 4.47778 137.798C8.46602 114.352 16.1626 92.6821 26.6672 75.291C28.9704 71.4781 32.7322 66.2613 36.0413 62.0684C37.6955 59.9723 39.2294 58.1415 40.4045 56.875C40.9941 56.2396 41.4816 55.7583 41.843 55.458C41.9989 55.3285 42.1177 55.2469 42.1995 55.1992C42.3043 55.2545 42.4078 55.3029 42.51 55.3311C42.6288 55.3638 42.9248 55.4238 43.1653 55.2109C43.4235 54.9822 43.3742 54.6641 43.343 54.5381C43.312 54.4129 43.2545 54.2854 43.1848 54.1611C43.1855 54.1589 43.186 54.1566 43.1868 54.1543C43.2162 54.0611 43.2819 53.9176 43.3967 53.7207C43.624 53.3311 43.9956 52.813 44.4778 52.2051C45.4384 50.9939 46.7972 49.4798 48.2102 48.0215C49.6235 46.5629 51.0791 45.172 52.2297 44.2041C52.8079 43.7177 53.2939 43.3511 53.6506 43.1357C53.795 43.0486 53.902 42.9997 53.9729 42.9727C54.1739 43.0879 54.3975 43.094 54.5754 43.0625C54.8005 43.0226 55.0247 42.9165 55.2288 42.7881C55.6427 42.5276 56.0932 42.1013 56.5002 41.582C56.8192 41.1758 57.0673 40.8552 57.2249 40.627C57.3008 40.5169 57.3726 40.404 57.4192 40.3027C57.4404 40.2566 57.4753 40.173 57.4856 40.0723C57.4959 39.9711 57.4874 39.7268 57.2571 39.5703C57.2446 39.5618 57.2315 39.5549 57.219 39.5479C57.2282 39.5395 57.238 39.5318 57.2473 39.5234C58.1666 38.6963 59.0908 38.0096 59.8313 37.5703C60.2035 37.3495 60.5128 37.2012 60.7415 37.125C60.8561 37.0868 60.9325 37.0721 60.9758 37.0693C61.1167 37.1503 61.27 37.2156 61.4309 37.2383C61.6165 37.2644 61.8405 37.2381 62.0295 37.0859C62.2151 36.9365 62.2888 36.7275 62.3098 36.5488C62.3305 36.3717 62.3052 36.1871 62.2571 36.0107L62.2678 35.9668C62.2793 35.9215 62.307 35.8432 62.3743 35.7236C62.4955 35.5083 62.7002 35.2407 62.9827 34.9365C63.5448 34.3313 64.3552 33.6426 65.2258 33.0117C66.0963 32.381 67.0056 31.8238 67.761 31.4746C68.1404 31.2992 68.462 31.1854 68.7092 31.1348C68.9804 31.0793 69.0556 31.1222 69.0413 31.1133C69.2005 31.2118 69.3749 31.2997 69.5461 31.335C69.7025 31.367 70.0649 31.3822 70.2532 31.0381C70.3269 30.9034 70.3359 30.7681 70.3303 30.6738C70.3245 30.5765 70.3013 30.4841 70.2747 30.4043C70.2481 30.3248 70.2121 30.2419 70.1692 30.1562L70.0198 29.8916C69.9033 29.7025 69.9247 29.6203 69.928 29.6094C69.932 29.5965 69.9589 29.5297 70.1262 29.4531C70.4849 29.289 71.2068 29.2192 72.2385 29.3984C72.4066 29.4277 72.5966 29.4289 72.7776 29.3613C72.9725 29.2885 73.1312 29.1432 73.2131 28.9404C73.3421 28.6212 73.2396 28.2842 73.0979 28.0225C73.1083 28.0011 73.1218 27.974 73.1418 27.9424C73.2439 27.7816 73.4392 27.5602 73.7356 27.293C74.3218 26.7645 75.2197 26.1317 76.2864 25.5322C77.3645 24.9261 78.3364 24.4435 79.0305 24.1523C79.3342 24.025 79.5682 23.9419 79.7278 23.8984C79.7788 23.9361 79.8338 23.9653 79.8909 23.9834C80.086 24.0453 80.2642 23.9862 80.3342 23.9609C80.5108 23.8971 80.7115 23.7686 80.9045 23.6279C81.3101 23.3325 81.8503 22.857 82.4309 22.2764C82.9585 21.7488 83.5901 21.3292 84.1731 21.0811C84.7847 20.8207 85.2324 20.7943 85.4504 20.8779C85.676 20.9644 85.89 21.0251 86.0833 21.0547C86.2663 21.0827 86.4778 21.0899 86.6721 21.0234C86.8965 20.9466 87.1112 20.7585 87.1497 20.4531C87.1804 20.2075 87.0803 19.9866 86.9836 19.8301C86.9608 19.7932 86.961 19.7735 86.9631 19.7578C86.9667 19.7327 86.9829 19.6784 87.0452 19.5986C87.1748 19.4325 87.4348 19.2418 87.7952 19.085C88.1476 18.9316 88.5521 18.8307 88.9299 18.8105C89.3144 18.7901 89.624 18.8547 89.8274 18.9805V18.9814C90.1484 19.1794 90.5546 19.293 90.9299 19.1318C91.3053 18.9705 91.4703 18.6152 91.4944 18.2568C91.4997 18.2503 91.5059 18.2423 91.5139 18.2334C91.5749 18.1665 91.682 18.0726 91.8459 17.9541C92.1707 17.7194 92.6522 17.4343 93.2542 17.1162C94.4538 16.4823 96.0752 15.7489 97.7405 15.0723C99.4053 14.3958 101.1 13.7814 102.445 13.3818C103.118 13.1816 103.692 13.0388 104.123 12.9678C104.34 12.9321 104.507 12.9172 104.625 12.918C104.764 12.9189 104.764 12.9419 104.714 12.9111H104.715C105.076 13.1337 105.495 13.1746 105.867 13.0225C106.218 12.8792 106.48 12.584 106.619 12.2129C106.642 12.1919 106.684 12.1586 106.755 12.1133C106.904 12.018 107.13 11.9014 107.438 11.7666C108.051 11.4984 108.931 11.1824 110.033 10.8311C112.235 10.1295 115.276 9.30246 118.739 8.4541C125.663 6.75755 134.237 4.98269 141.074 3.95898C147.542 2.9906 162.741 1.94072 176.015 1.54785ZM299.384 43.1025C267.875 42.989 236.765 42.9481 213.399 43.0068C201.716 43.0362 191.967 43.0904 185.072 43.1729C181.625 43.214 178.888 43.2626 176.979 43.3184C176.025 43.3462 175.272 43.3761 174.74 43.4082C174.475 43.4242 174.259 43.4408 174.097 43.459C174.016 43.468 173.942 43.4784 173.879 43.4902C173.836 43.4984 173.734 43.5169 173.643 43.5654C173.608 43.5837 173.495 43.626 173.266 43.6816C173.05 43.734 172.766 43.7905 172.42 43.8496C171.729 43.9678 170.812 44.093 169.73 44.2178C167.567 44.4672 164.767 44.712 161.856 44.8916C133.702 46.6278 110.459 53.8055 91.8635 66.541C71.6662 80.3753 58.0817 99.5852 50.3928 125.158L50.0305 126.381C42.9638 150.658 42.0945 173.112 42.8342 309.502C43.514 434.755 44.1994 448.137 51.2327 470.648C56.7162 488.197 63.6211 500.106 75.636 512.721C96.5016 534.626 122.426 544.541 166.191 547.482C176.407 548.169 240.663 548.512 304.505 548.514C368.344 548.515 431.857 548.175 440.578 547.488C474.021 544.854 500.066 535.819 519.035 520.023C538.011 504.222 549.855 481.699 554.974 452.195C556.338 444.334 557.21 431.719 557.742 408.06C558.275 384.392 558.466 349.644 558.457 297.5C558.44 197.826 557.729 161.571 555.458 145.499C550.869 113.005 536.551 87.2452 513.282 69.708C493.184 54.5599 470.592 47.3327 434.54 44.4482C427.035 43.8477 362.384 43.3296 299.384 43.1025ZM283.55 128.096C288.86 127.558 298.647 127.627 308.405 128.095C318.163 128.562 327.829 129.425 332.9 130.46C374.982 139.048 410.603 161.838 436.576 196.798C451.339 216.667 460.329 236.596 465.696 261.356C467.585 270.077 467.909 274.599 467.93 293C467.952 311.478 467.635 316.05 465.674 325.827C453.831 384.871 411.043 434.415 355.082 453.894C345.231 457.323 338.258 459.344 330.609 460.513C322.955 461.682 314.606 462 302 462C289.006 462 280.237 461.676 272.332 460.564C264.433 459.453 257.379 457.552 247.819 454.381C226.919 447.449 206.747 435.886 191.237 421.953C187.611 418.696 183.499 414.685 180.245 411.312C178.618 409.625 177.21 408.101 176.186 406.914C175.673 406.32 175.261 405.815 174.968 405.42C174.821 405.222 174.708 405.056 174.628 404.925C174.543 404.785 174.514 404.713 174.508 404.692L174.507 404.691L174.473 404.595C174.432 404.5 174.375 404.409 174.329 404.338C174.257 404.226 174.162 404.094 174.05 403.947C173.826 403.653 173.52 403.279 173.156 402.853C172.425 401.998 171.448 400.915 170.397 399.811C166.072 395.264 160.613 387.177 155.491 378.118C150.374 369.066 145.617 359.086 142.685 350.776C136.821 334.165 133.5 313.33 133.5 293.111C133.5 254.456 146.912 218.473 172.917 187.389C201.438 153.298 240.291 132.478 283.55 128.096ZM375.898 193.874C350.124 174.626 320.936 166.535 286.961 169.204C273.318 170.276 254.601 175.879 241.765 182.73C206.624 201.486 182.368 235.375 175.893 274.763C174.847 281.125 174.51 290.386 174.785 299.577C175.061 308.768 175.949 317.936 177.37 324.111C185.333 358.69 209.352 389.837 241.286 407.012C243.749 408.337 246.023 409.631 247.702 410.646C248.543 411.155 249.229 411.59 249.713 411.924C249.956 412.091 250.141 412.227 250.267 412.331C250.33 412.383 250.371 412.421 250.395 412.445C250.396 412.447 250.397 412.448 250.398 412.449C250.716 413.133 251.503 413.359 252.148 412.992C252.157 412.991 252.176 412.987 252.207 412.985C252.285 412.982 252.4 412.986 252.556 413.004C252.866 413.039 253.285 413.12 253.788 413.243C254.792 413.489 256.084 413.895 257.418 414.4C268.835 418.727 280.951 420.685 297.394 420.857L298.998 420.868C317.385 420.931 325.806 419.787 340.151 415.261C366.721 406.875 390.541 388.849 406.407 365.129C421.212 342.996 427.5 322.321 427.5 295.775C427.5 254.83 409.239 218.776 375.898 193.874ZM464.081 93.8447C470.098 92.2214 476.361 92.2374 482.596 93.8975C495.03 97.2079 504.15 107.449 506.018 120.203C506.377 122.659 506.171 126.264 505.573 129.846C505.013 133.203 504.119 136.476 503.069 138.704L502.857 139.135C501.649 141.486 499.325 144.364 496.626 147.01C493.929 149.654 490.899 152.027 488.307 153.393C486.107 154.551 484.615 155.188 482.653 155.545C480.669 155.906 478.187 155.984 474 155.979C468.483 155.973 464.37 155.436 460.806 154.079C457.247 152.724 454.197 150.537 450.829 147.17C433.772 130.113 441.299 99.9887 464.081 93.8447Z" fill="#CBAC51" stroke="#EEA926"/>
</svg>
