<svg width="290" height="413" viewBox="0 0 290 413" fill="none" xmlns="http://www.w3.org/2000/svg">
<mask id="path-1-inside-1_145_8" fill="white">
<path fill-rule="evenodd" clip-rule="evenodd" d="M140.481 1.66213C135.89 6.25313 62.182 105.903 44.814 131C17.956 169.809 6.01802 198.772 0.918018 237.5C-0.749982 250.162 0.317019 280.727 2.84002 292.575C9.45902 323.661 22.778 349.491 42.958 370.377C67.643 395.926 93.643 408.525 129 412.071C173.178 416.501 214.83 402.305 244.112 372.838C262.973 353.859 273.347 337.134 281.538 312.5C286.09 298.809 287.783 290.018 289.175 272.85C292.408 232.952 281.957 193.049 258.204 154.597C251.037 142.995 241.921 129.87 226.188 108.5C219.304 99.1501 209.538 85.8751 204.486 79.0001C145.527 -1.23787 146.488 0.000132773 143.137 0.000132773C142.59 0.000132773 141.395 0.748133 140.481 1.66213ZM129.528 45.7981C122.393 55.5341 109.086 73.6251 99.956 86.0001C82.96 109.038 58 143.682 58 144.235C58 144.405 73.094 144.369 91.542 144.155C122.563 143.796 125.232 143.9 127.042 145.538C129.764 148.001 129.485 151.646 126.354 154.548C123.754 156.957 123.402 157 106.104 157.003C96.422 157.004 79.454 157.298 68.397 157.657L48.295 158.308L41.722 170.904C31.367 190.747 20.705 220.067 22.684 223.258C23.133 223.981 29.531 232.656 36.902 242.536C44.273 252.416 50.376 260.602 50.463 260.728C50.55 260.853 53.541 258.107 57.109 254.626C67.194 244.785 74.98 243.796 86.224 250.927C90.788 253.822 96.312 260.257 97.532 264.101C97.958 265.443 99.07 266 101.324 266C113.187 266 122.217 274.266 123.778 286.555C124.493 292.182 124.546 292.257 129.113 294.049L133.726 295.859L134.908 291.913C137.256 284.075 146.131 277.073 153.782 277.022C159.608 276.983 164.298 279.883 174.5 289.832C193.478 308.34 196.647 311.002 199.676 310.978C207.756 310.914 212.071 299.743 206.166 294.173C196.473 285.029 165 253.443 165 252.859C165 252.471 166.165 250.769 167.589 249.077C169.336 247.001 171.081 246 172.956 246C175.745 246 177.343 247.409 210.5 279.115C214.9 283.322 219.479 287.062 220.677 287.426C223.617 288.321 229.181 285.857 231.832 282.486C234.401 279.22 234.625 274.437 232.453 269.218C230.736 265.091 168.543 202 166.192 202C165.45 202 161.616 204.627 157.671 207.838C144.404 218.64 126.291 231.703 122.983 232.856C118.693 234.352 110.78 234.313 105.616 232.771C103.097 232.019 99.502 229.594 96.351 226.521C91.981 222.26 91.028 220.643 90.048 215.835C88.636 208.907 90.396 200.792 94.467 195.455C95.914 193.557 102.589 187.649 109.299 182.326C116.01 177.003 126.78 168.417 133.234 163.246C149.602 150.131 156.974 145.386 162.983 144.097C166.031 143.443 179.844 143 197.156 143C222.379 143 226.139 142.805 225.647 141.522C224.986 139.801 214.178 124.682 182.381 81.0001C149.38 35.6651 143.684 27.9941 143.058 28.0481C142.751 28.0751 136.663 36.0621 129.528 45.7981ZM169.034 157.158C166.578 157.604 162.528 159.246 160.034 160.805C153.434 164.933 108.326 200.77 105.987 203.744C103.079 207.44 103.282 214.373 106.388 217.479C109.358 220.449 114.961 221.626 118.109 219.942C119.385 219.259 130.503 211.117 142.816 201.85C160.762 188.342 165.828 185 168.357 185C171.165 185 175.065 188.555 203.861 217.36L236.21 249.721L251.719 239.145L267.227 228.568L266.666 224.034C265.248 212.583 254.312 186.523 242.195 165.724L236.5 155.948L205 156.147C187.675 156.256 171.49 156.711 169.034 157.158ZM18.525 251C17.227 268.069 20.721 291.857 27.063 309.137C40.914 346.872 70.884 377.89 105 389.798C128.051 397.843 157.999 398.14 181.24 390.553C207.374 382.022 230.93 363.895 246.863 340.053C263.708 314.846 270.386 292.709 270.46 261.834C270.482 252.668 270.215 244.882 269.866 244.534C269.518 244.185 265.243 246.77 260.366 250.28C255.49 253.789 249.625 257.896 247.334 259.408L243.167 262.155L245.062 266.328C250.501 278.307 245.053 292.221 232.62 298.103C229.254 299.696 225.488 300.999 224.25 300.999C222.509 301 222 301.573 222 303.532C222 309.392 216.026 318.322 209.987 321.489C208.605 322.213 205.401 323.117 202.867 323.497C198.555 324.144 198.183 324.445 197.061 328.192C196.401 330.394 194.057 334.153 191.852 336.545C186.725 342.107 180.938 344.379 173.284 343.833L167.5 343.42L156.631 355.678C143.631 370.34 140.23 372.439 130.471 371.817C125.348 371.491 123.175 370.799 119.779 368.412C114.822 364.928 111.328 359.27 110.416 353.25C109.863 349.595 109.433 349 107.347 349C103.857 349 97.673 345.588 94.65 341.996C93.219 340.295 91.274 336.724 90.328 334.06C88.683 329.429 88.417 329.194 84.285 328.729C75.767 327.769 66.719 318.979 65.435 310.417C64.794 306.143 64.658 306 61.202 306C48.645 306 38.809 292.303 41.953 279.196L43.167 274.137L33.033 260.318C27.46 252.718 22.078 245.375 21.074 244L19.248 241.5L18.525 251ZM66.382 264.462C64.031 266.916 60.236 271.291 57.949 274.184C54.144 278.997 53.833 279.828 54.297 283.94C54.912 289.403 59.338 294 63.982 294C66.465 294 68.365 292.385 75.966 283.82C80.935 278.221 85 273.037 85 272.3C85 270.271 80.382 263.381 77.819 261.586C73.961 258.883 71.018 259.623 66.382 264.462ZM90.941 287.19C79.019 300.312 78 301.81 78 306.214C78 309.235 78.682 310.835 80.923 313.077C83.787 315.941 86.346 316.551 90.65 315.396C92.883 314.797 105.228 300.957 108.895 294.94C112.518 288.998 111.584 284.346 106.027 280.646C101.176 277.416 98.94 278.385 90.941 287.19ZM148.589 293.077C146.819 295.181 146 297.33 146 299.875C146 303.333 146.983 304.568 159.868 317.298C174.473 331.729 176.144 332.689 180.883 329.369C182.164 328.472 183.852 326.205 184.635 324.331C186.416 320.069 187.16 321.077 169.428 303.75C160.434 294.962 154.602 290 153.267 290C152.118 290 150.013 291.385 148.589 293.077ZM114.459 310.218C111.292 313.638 106.995 318.595 104.909 321.235C101.489 325.561 101.218 326.326 102.152 329.007C103.423 332.653 108.396 337 111.295 337C114.65 337 135.877 314.228 134.54 312.064C133.808 310.88 122.303 304 121.054 304C120.593 304 117.625 306.798 114.459 310.218ZM134.131 334.2C125.063 344.273 123.053 347.068 123.029 349.639C122.97 355.982 129.903 360.156 135.775 357.312C137.447 356.502 141.894 352.201 145.658 347.754C149.421 343.307 153.744 338.2 155.265 336.405L158.029 333.141L152.423 327.821C149.34 324.894 146.454 322.365 146.01 322.2C145.566 322.036 140.22 327.436 134.131 334.2Z"/>
</mask>
<path fill-rule="evenodd" clip-rule="evenodd" d="M140.481 1.66213C135.89 6.25313 62.182 105.903 44.814 131C17.956 169.809 6.01802 198.772 0.918018 237.5C-0.749982 250.162 0.317019 280.727 2.84002 292.575C9.45902 323.661 22.778 349.491 42.958 370.377C67.643 395.926 93.643 408.525 129 412.071C173.178 416.501 214.83 402.305 244.112 372.838C262.973 353.859 273.347 337.134 281.538 312.5C286.09 298.809 287.783 290.018 289.175 272.85C292.408 232.952 281.957 193.049 258.204 154.597C251.037 142.995 241.921 129.87 226.188 108.5C219.304 99.1501 209.538 85.8751 204.486 79.0001C145.527 -1.23787 146.488 0.000132773 143.137 0.000132773C142.59 0.000132773 141.395 0.748133 140.481 1.66213ZM129.528 45.7981C122.393 55.5341 109.086 73.6251 99.956 86.0001C82.96 109.038 58 143.682 58 144.235C58 144.405 73.094 144.369 91.542 144.155C122.563 143.796 125.232 143.9 127.042 145.538C129.764 148.001 129.485 151.646 126.354 154.548C123.754 156.957 123.402 157 106.104 157.003C96.422 157.004 79.454 157.298 68.397 157.657L48.295 158.308L41.722 170.904C31.367 190.747 20.705 220.067 22.684 223.258C23.133 223.981 29.531 232.656 36.902 242.536C44.273 252.416 50.376 260.602 50.463 260.728C50.55 260.853 53.541 258.107 57.109 254.626C67.194 244.785 74.98 243.796 86.224 250.927C90.788 253.822 96.312 260.257 97.532 264.101C97.958 265.443 99.07 266 101.324 266C113.187 266 122.217 274.266 123.778 286.555C124.493 292.182 124.546 292.257 129.113 294.049L133.726 295.859L134.908 291.913C137.256 284.075 146.131 277.073 153.782 277.022C159.608 276.983 164.298 279.883 174.5 289.832C193.478 308.34 196.647 311.002 199.676 310.978C207.756 310.914 212.071 299.743 206.166 294.173C196.473 285.029 165 253.443 165 252.859C165 252.471 166.165 250.769 167.589 249.077C169.336 247.001 171.081 246 172.956 246C175.745 246 177.343 247.409 210.5 279.115C214.9 283.322 219.479 287.062 220.677 287.426C223.617 288.321 229.181 285.857 231.832 282.486C234.401 279.22 234.625 274.437 232.453 269.218C230.736 265.091 168.543 202 166.192 202C165.45 202 161.616 204.627 157.671 207.838C144.404 218.64 126.291 231.703 122.983 232.856C118.693 234.352 110.78 234.313 105.616 232.771C103.097 232.019 99.502 229.594 96.351 226.521C91.981 222.26 91.028 220.643 90.048 215.835C88.636 208.907 90.396 200.792 94.467 195.455C95.914 193.557 102.589 187.649 109.299 182.326C116.01 177.003 126.78 168.417 133.234 163.246C149.602 150.131 156.974 145.386 162.983 144.097C166.031 143.443 179.844 143 197.156 143C222.379 143 226.139 142.805 225.647 141.522C224.986 139.801 214.178 124.682 182.381 81.0001C149.38 35.6651 143.684 27.9941 143.058 28.0481C142.751 28.0751 136.663 36.0621 129.528 45.7981ZM169.034 157.158C166.578 157.604 162.528 159.246 160.034 160.805C153.434 164.933 108.326 200.77 105.987 203.744C103.079 207.44 103.282 214.373 106.388 217.479C109.358 220.449 114.961 221.626 118.109 219.942C119.385 219.259 130.503 211.117 142.816 201.85C160.762 188.342 165.828 185 168.357 185C171.165 185 175.065 188.555 203.861 217.36L236.21 249.721L251.719 239.145L267.227 228.568L266.666 224.034C265.248 212.583 254.312 186.523 242.195 165.724L236.5 155.948L205 156.147C187.675 156.256 171.49 156.711 169.034 157.158ZM18.525 251C17.227 268.069 20.721 291.857 27.063 309.137C40.914 346.872 70.884 377.89 105 389.798C128.051 397.843 157.999 398.14 181.24 390.553C207.374 382.022 230.93 363.895 246.863 340.053C263.708 314.846 270.386 292.709 270.46 261.834C270.482 252.668 270.215 244.882 269.866 244.534C269.518 244.185 265.243 246.77 260.366 250.28C255.49 253.789 249.625 257.896 247.334 259.408L243.167 262.155L245.062 266.328C250.501 278.307 245.053 292.221 232.62 298.103C229.254 299.696 225.488 300.999 224.25 300.999C222.509 301 222 301.573 222 303.532C222 309.392 216.026 318.322 209.987 321.489C208.605 322.213 205.401 323.117 202.867 323.497C198.555 324.144 198.183 324.445 197.061 328.192C196.401 330.394 194.057 334.153 191.852 336.545C186.725 342.107 180.938 344.379 173.284 343.833L167.5 343.42L156.631 355.678C143.631 370.34 140.23 372.439 130.471 371.817C125.348 371.491 123.175 370.799 119.779 368.412C114.822 364.928 111.328 359.27 110.416 353.25C109.863 349.595 109.433 349 107.347 349C103.857 349 97.673 345.588 94.65 341.996C93.219 340.295 91.274 336.724 90.328 334.06C88.683 329.429 88.417 329.194 84.285 328.729C75.767 327.769 66.719 318.979 65.435 310.417C64.794 306.143 64.658 306 61.202 306C48.645 306 38.809 292.303 41.953 279.196L43.167 274.137L33.033 260.318C27.46 252.718 22.078 245.375 21.074 244L19.248 241.5L18.525 251ZM66.382 264.462C64.031 266.916 60.236 271.291 57.949 274.184C54.144 278.997 53.833 279.828 54.297 283.94C54.912 289.403 59.338 294 63.982 294C66.465 294 68.365 292.385 75.966 283.82C80.935 278.221 85 273.037 85 272.3C85 270.271 80.382 263.381 77.819 261.586C73.961 258.883 71.018 259.623 66.382 264.462ZM90.941 287.19C79.019 300.312 78 301.81 78 306.214C78 309.235 78.682 310.835 80.923 313.077C83.787 315.941 86.346 316.551 90.65 315.396C92.883 314.797 105.228 300.957 108.895 294.94C112.518 288.998 111.584 284.346 106.027 280.646C101.176 277.416 98.94 278.385 90.941 287.19ZM148.589 293.077C146.819 295.181 146 297.33 146 299.875C146 303.333 146.983 304.568 159.868 317.298C174.473 331.729 176.144 332.689 180.883 329.369C182.164 328.472 183.852 326.205 184.635 324.331C186.416 320.069 187.16 321.077 169.428 303.75C160.434 294.962 154.602 290 153.267 290C152.118 290 150.013 291.385 148.589 293.077ZM114.459 310.218C111.292 313.638 106.995 318.595 104.909 321.235C101.489 325.561 101.218 326.326 102.152 329.007C103.423 332.653 108.396 337 111.295 337C114.65 337 135.877 314.228 134.54 312.064C133.808 310.88 122.303 304 121.054 304C120.593 304 117.625 306.798 114.459 310.218ZM134.131 334.2C125.063 344.273 123.053 347.068 123.029 349.639C122.97 355.982 129.903 360.156 135.775 357.312C137.447 356.502 141.894 352.201 145.658 347.754C149.421 343.307 153.744 338.2 155.265 336.405L158.029 333.141L152.423 327.821C149.34 324.894 146.454 322.365 146.01 322.2C145.566 322.036 140.22 327.436 134.131 334.2Z" fill="#B69B49" stroke="#DF9C23" stroke-width="2" mask="url(#path-1-inside-1_145_8)"/>
</svg>
