<svg width="700" height="700" viewBox="0 0 700 700" fill="none" xmlns="http://www.w3.org/2000/svg">
<mask id="path-1-inside-1_144_170" fill="white">
<path fill-rule="evenodd" clip-rule="evenodd" d="M332.5 1.09757C269.295 3.59657 202.871 25.9436 150.912 62.1906C102.424 96.0156 62.3491 141.991 36.8901 193C17.7191 231.41 7.16407 267.157 1.77307 311.927C-0.210929 328.401 0.139074 379.49 2.33807 394.5C7.96707 432.917 17.2721 464.485 32.8101 497.884C50.6861 536.307 72.6171 567.546 103.5 598.573C158.461 653.792 224.414 685.917 307 697.696C324.475 700.188 375.014 700.203 392.627 697.72C461.708 687.984 516.925 664.646 568.918 623.208C580.214 614.205 607.344 587.262 618 574.465C661.698 521.982 691.392 452.145 697.918 386.5C701.898 346.476 699.006 303.27 689.887 266.5C684.674 245.48 674.897 218.362 665.19 198C642.9 151.24 607.168 106.737 566 74.4606C546.467 59.1466 516.908 41.2236 495.781 31.8846C443.337 8.70255 390.786 -1.20643 332.5 1.09757ZM314.237 33.5786C239.522 42.6286 175.495 73.3746 123.962 124.952C93.3861 155.554 71.3641 188.071 54.5411 227.458C38.5951 264.791 30.6011 303.306 29.2981 349.077C28.6451 372.027 29.1121 377 31.9231 377C35.0211 377 60.4871 383.861 68.8941 386.961C86.0011 393.269 101.711 402.881 113.822 414.452C118.167 418.603 122.066 422 122.487 422C122.907 422 131.9 413.417 142.472 402.926C153.044 392.435 163.675 382.525 166.097 380.905C172.692 376.491 179.958 374.683 188.992 375.206C207.234 376.262 222.228 389.36 226.007 407.539C226.989 412.263 227.257 412.592 230.277 412.788C241.236 413.499 249.407 417.322 256.26 424.944C262.142 431.487 264.988 437.751 265.883 446.126C266.284 449.877 266.822 453.155 267.079 453.412C267.335 453.668 270.85 454.568 274.889 455.41C290.057 458.572 301.527 470.444 303.518 485.042C304.704 493.741 304.675 493.692 309.118 494.403C319.896 496.126 330.878 504.773 336.051 515.608C338.783 521.331 341.655 535.131 340.502 536.997C340.219 537.455 341.467 538.744 343.276 539.862C345.085 540.98 356.809 552.303 369.33 565.024C394.713 590.815 397.291 592.663 406.558 591.706C415.287 590.805 423.114 585.499 427.088 577.79C429.071 573.941 429.598 567.492 428.119 565.158C427.651 564.42 410.873 547.32 390.835 527.158C333.382 469.351 328.257 463.885 327.443 459.545C326.452 454.266 328.409 448.726 332.547 445.093C335.44 442.552 336.912 442.006 340.785 442.035C343.378 442.055 346.458 442.617 347.629 443.285C348.801 443.953 372.807 467.9 400.976 496.5C429.146 525.1 453.486 549.322 455.065 550.328C457.617 551.953 458.575 552.024 463.718 550.973C468.561 549.983 470.245 549.024 474.088 545.067C479.699 539.289 481.697 533.127 479.747 527.614C478.451 523.951 478.01 523.486 412.055 456.26C391.013 434.813 375.777 418.485 374.729 416.26C371.498 409.398 374.788 399.573 381.21 396.913C384.977 395.353 391.046 395.419 394.1 397.054C396.048 398.096 439.804 442.029 479.552 482.852C487.774 491.295 495.816 499.144 497.424 500.294C503.921 504.938 516.444 501.51 524.521 492.874C530.382 486.608 532.95 480.941 532.978 474.21C533.018 464.547 533.448 465.071 483.546 414C473.067 403.275 452.81 382.35 438.532 367.5C424.253 352.65 407.771 335.55 401.904 329.5C396.037 323.45 387.697 314.55 383.37 309.722C377.2 302.837 374.652 300.714 371.555 299.88C364.1 297.873 351.02 302.028 340.5 309.747C338.3 311.361 325.015 322.766 310.977 335.091C281.863 360.653 277.879 363.751 268.373 368.224C262.249 371.105 260.338 371.498 250.833 371.836C239.764 372.23 234.353 371.162 225.882 366.91C219.309 363.611 211.276 355.305 207.774 348.189C204.723 341.988 204.503 340.854 204.54 331.518C204.588 319.595 206.013 315.531 217.412 294.816C244.482 245.621 257.723 227.051 275.283 213.656C288.417 203.637 305.381 195.955 321.14 192.891C330.532 191.065 353.407 191.591 367.204 193.949C373.624 195.047 389.313 198.442 402.068 201.495C436.933 209.838 441.127 210.485 460 210.427C475.079 210.381 477.275 210.139 485.5 207.622C508.599 200.554 528.341 184.452 550.297 154.772C556.687 146.135 559.862 144 566.315 144C576.969 144 582.53 156.284 576.584 166.683C569.425 179.202 552.129 199.342 539.5 209.864C514.627 230.587 493.167 239.462 465 240.673C443.478 241.599 426.734 239.185 388.5 229.647C364.852 223.747 352.774 221.804 340 221.844C306.646 221.949 285.984 236.092 262.343 275C251.196 293.345 236.979 318.807 235.427 323.206C231.15 335.33 237.686 345.026 249.215 343.661C256.7 342.774 262.477 338.981 281.269 322.614C330.94 279.351 337.116 274.989 353.665 271.483C362.834 269.54 368.247 269.636 376.84 271.892C388.911 275.061 393.073 278.366 419.792 306C478.817 367.047 541.411 431 542.135 431C542.567 431 545.45 427.581 548.541 423.401C562.048 405.137 580.069 391.264 602.381 381.954C618.874 375.072 644.032 368.398 664.197 365.555C668.879 364.895 668.896 364.879 669.58 360.313C669.958 357.794 669.959 349.38 669.582 341.616C668.171 312.535 663.99 285.625 657.444 263.5C655.98 258.55 654.365 253.055 653.855 251.29C651.55 243.307 644.305 225.366 638.506 213.279C622.39 179.691 600.172 149.026 572.365 121.994C521.758 72.7995 457.667 42.3446 387.143 33.9826C367.325 31.6326 331.923 31.4356 314.237 33.5786ZM150.289 143.25C143.43 148.098 143.378 153.393 150.008 171.522C159.927 198.642 164.859 217.594 169.513 246.464C171.242 257.193 172.81 263.739 174.293 266.425C178.065 273.257 185.833 277.018 193.25 275.603C197.153 274.858 202.191 271.865 220 259.712C232.163 251.412 233.645 250.079 234.969 246.25C236.261 242.512 236.261 241.492 234.969 237.783C232.806 231.572 228.074 228.652 221.272 229.33C215.503 229.905 208.113 233.5 202.075 238.667C199.934 240.5 197.7 242 197.11 242C195.921 242 195.881 241.831 193.48 227.068C189.871 204.869 176.692 160.908 169.446 146.895C166.356 140.92 156.293 139.005 150.289 143.25ZM648.5 398.55C604.687 408.021 578.603 424.877 562.629 454.041C559.304 460.112 559.125 460.867 560.143 464.541C561.691 470.123 560.587 484.288 558.033 491.625C552.283 508.145 537.162 523.09 521.217 528.015C517.682 529.107 513.037 530 510.895 530H507V534.29C507 540.667 504.329 549.814 500.722 555.79C496.563 562.68 488.101 571.083 481.95 574.431C476.786 577.242 465.98 579.954 459.829 579.983C456.501 579.998 456.095 580.303 455.472 583.25C453.243 593.794 440.734 608.591 429.092 614.453C417.487 620.298 403.417 621.349 390.32 617.352L385.14 615.77L381.889 619.635C380.101 621.761 373.882 628.264 368.069 634.087C360.064 642.106 355.893 645.46 350.878 647.912C337.599 654.403 321.039 654.404 307.209 647.916C301.772 645.365 298.32 642.555 289 633.096C282.675 626.677 275.925 619.091 274 616.238L270.5 611.052L263.932 611.026C244.435 610.949 227.295 598.481 223.503 581.616L222.352 576.5L214.994 575.759C196.367 573.883 182.239 560.148 180.35 542.078L179.735 536.187L175.42 535.54C168.982 534.575 159.746 529.533 155.017 524.403C149.018 517.895 144.833 508.393 144.225 499.903L143.732 493.005L139.616 491.921C126.057 488.349 116.076 477.475 110.082 459.744C106.359 448.727 104.671 445.636 99.1431 439.702C88.0331 427.776 67.1031 415.929 46.0001 409.621C39.6751 407.73 34.3941 406.285 34.2641 406.41C34.1351 406.536 34.6461 409.532 35.4011 413.069C54.3161 501.679 107.683 576.926 185.326 624.463C218.476 644.758 259.526 659.183 304 666.163C316.713 668.158 322.259 668.441 349 668.462C380.782 668.487 390.183 667.691 414.367 662.927C475.094 650.963 529.922 621.257 574.807 576C620.951 529.474 651.525 472.87 662.851 413C666.401 394.233 666.414 395.988 662.725 396.086C660.951 396.133 654.55 397.242 648.5 398.55ZM183.5 403.409C181.85 404.165 170.712 414.644 158.75 426.694C139.707 445.877 137 448.994 137 451.737C137 461.257 146.399 468.491 153.722 464.607C155.25 463.797 166.075 453.524 177.778 441.78C201.148 418.328 201.965 417.065 198.298 410.071C194.997 403.776 188.791 400.982 183.5 403.409ZM220.454 441.303C214.61 446.282 173.554 488.028 172.327 490.239C167.819 498.355 175.07 509 185.106 509C188.089 509 190.869 506.547 213.701 483.78C240.103 457.452 241.215 455.977 239.579 449.458C239.226 448.052 237.474 445.305 235.684 443.353C233.132 440.568 231.459 439.693 227.92 439.294C224.12 438.866 222.942 439.183 220.454 441.303ZM254 485.294C242.672 494.801 208.202 530.345 207.466 533.278C206.421 537.445 207.755 540.991 211.947 545.183C215.059 548.294 216.48 548.999 219.632 548.993C221.76 548.99 224.663 548.202 226.084 547.243C227.505 546.285 239.359 534.601 252.425 521.28C273.823 499.465 276.235 496.669 276.711 493.12C277.185 489.582 276.84 488.751 273.332 484.991C270.144 481.572 268.605 480.714 264.963 480.32C260.738 479.864 260.154 480.129 254 485.294ZM296.041 521.108C294.688 521.648 283.486 532.16 271.147 544.467C248.884 566.675 248.718 566.872 249.295 570.432C250.562 578.237 257.721 583.703 265.339 582.681C269.055 582.183 271.261 580.27 291.334 560.138L313.268 538.139L312.778 533.037C312.226 527.293 309.547 523.614 304.282 521.371C300.576 519.792 299.431 519.755 296.041 521.108ZM311.503 580.997L294.529 597.993L305.014 608.571C310.934 614.543 317.554 620.205 320.217 621.574C326.014 624.556 332.648 624.744 337.79 622.073C342.192 619.786 362.405 599.701 361.871 598.145C361.599 597.353 329.059 564 328.559 564C328.514 564 320.839 571.648 311.503 580.997Z"/>
</mask>
<path fill-rule="evenodd" clip-rule="evenodd" d="M332.5 1.09757C269.295 3.59657 202.871 25.9436 150.912 62.1906C102.424 96.0156 62.3491 141.991 36.8901 193C17.7191 231.41 7.16407 267.157 1.77307 311.927C-0.210929 328.401 0.139074 379.49 2.33807 394.5C7.96707 432.917 17.2721 464.485 32.8101 497.884C50.6861 536.307 72.6171 567.546 103.5 598.573C158.461 653.792 224.414 685.917 307 697.696C324.475 700.188 375.014 700.203 392.627 697.72C461.708 687.984 516.925 664.646 568.918 623.208C580.214 614.205 607.344 587.262 618 574.465C661.698 521.982 691.392 452.145 697.918 386.5C701.898 346.476 699.006 303.27 689.887 266.5C684.674 245.48 674.897 218.362 665.19 198C642.9 151.24 607.168 106.737 566 74.4606C546.467 59.1466 516.908 41.2236 495.781 31.8846C443.337 8.70255 390.786 -1.20643 332.5 1.09757ZM314.237 33.5786C239.522 42.6286 175.495 73.3746 123.962 124.952C93.3861 155.554 71.3641 188.071 54.5411 227.458C38.5951 264.791 30.6011 303.306 29.2981 349.077C28.6451 372.027 29.1121 377 31.9231 377C35.0211 377 60.4871 383.861 68.8941 386.961C86.0011 393.269 101.711 402.881 113.822 414.452C118.167 418.603 122.066 422 122.487 422C122.907 422 131.9 413.417 142.472 402.926C153.044 392.435 163.675 382.525 166.097 380.905C172.692 376.491 179.958 374.683 188.992 375.206C207.234 376.262 222.228 389.36 226.007 407.539C226.989 412.263 227.257 412.592 230.277 412.788C241.236 413.499 249.407 417.322 256.26 424.944C262.142 431.487 264.988 437.751 265.883 446.126C266.284 449.877 266.822 453.155 267.079 453.412C267.335 453.668 270.85 454.568 274.889 455.41C290.057 458.572 301.527 470.444 303.518 485.042C304.704 493.741 304.675 493.692 309.118 494.403C319.896 496.126 330.878 504.773 336.051 515.608C338.783 521.331 341.655 535.131 340.502 536.997C340.219 537.455 341.467 538.744 343.276 539.862C345.085 540.98 356.809 552.303 369.33 565.024C394.713 590.815 397.291 592.663 406.558 591.706C415.287 590.805 423.114 585.499 427.088 577.79C429.071 573.941 429.598 567.492 428.119 565.158C427.651 564.42 410.873 547.32 390.835 527.158C333.382 469.351 328.257 463.885 327.443 459.545C326.452 454.266 328.409 448.726 332.547 445.093C335.44 442.552 336.912 442.006 340.785 442.035C343.378 442.055 346.458 442.617 347.629 443.285C348.801 443.953 372.807 467.9 400.976 496.5C429.146 525.1 453.486 549.322 455.065 550.328C457.617 551.953 458.575 552.024 463.718 550.973C468.561 549.983 470.245 549.024 474.088 545.067C479.699 539.289 481.697 533.127 479.747 527.614C478.451 523.951 478.01 523.486 412.055 456.26C391.013 434.813 375.777 418.485 374.729 416.26C371.498 409.398 374.788 399.573 381.21 396.913C384.977 395.353 391.046 395.419 394.1 397.054C396.048 398.096 439.804 442.029 479.552 482.852C487.774 491.295 495.816 499.144 497.424 500.294C503.921 504.938 516.444 501.51 524.521 492.874C530.382 486.608 532.95 480.941 532.978 474.21C533.018 464.547 533.448 465.071 483.546 414C473.067 403.275 452.81 382.35 438.532 367.5C424.253 352.65 407.771 335.55 401.904 329.5C396.037 323.45 387.697 314.55 383.37 309.722C377.2 302.837 374.652 300.714 371.555 299.88C364.1 297.873 351.02 302.028 340.5 309.747C338.3 311.361 325.015 322.766 310.977 335.091C281.863 360.653 277.879 363.751 268.373 368.224C262.249 371.105 260.338 371.498 250.833 371.836C239.764 372.23 234.353 371.162 225.882 366.91C219.309 363.611 211.276 355.305 207.774 348.189C204.723 341.988 204.503 340.854 204.54 331.518C204.588 319.595 206.013 315.531 217.412 294.816C244.482 245.621 257.723 227.051 275.283 213.656C288.417 203.637 305.381 195.955 321.14 192.891C330.532 191.065 353.407 191.591 367.204 193.949C373.624 195.047 389.313 198.442 402.068 201.495C436.933 209.838 441.127 210.485 460 210.427C475.079 210.381 477.275 210.139 485.5 207.622C508.599 200.554 528.341 184.452 550.297 154.772C556.687 146.135 559.862 144 566.315 144C576.969 144 582.53 156.284 576.584 166.683C569.425 179.202 552.129 199.342 539.5 209.864C514.627 230.587 493.167 239.462 465 240.673C443.478 241.599 426.734 239.185 388.5 229.647C364.852 223.747 352.774 221.804 340 221.844C306.646 221.949 285.984 236.092 262.343 275C251.196 293.345 236.979 318.807 235.427 323.206C231.15 335.33 237.686 345.026 249.215 343.661C256.7 342.774 262.477 338.981 281.269 322.614C330.94 279.351 337.116 274.989 353.665 271.483C362.834 269.54 368.247 269.636 376.84 271.892C388.911 275.061 393.073 278.366 419.792 306C478.817 367.047 541.411 431 542.135 431C542.567 431 545.45 427.581 548.541 423.401C562.048 405.137 580.069 391.264 602.381 381.954C618.874 375.072 644.032 368.398 664.197 365.555C668.879 364.895 668.896 364.879 669.58 360.313C669.958 357.794 669.959 349.38 669.582 341.616C668.171 312.535 663.99 285.625 657.444 263.5C655.98 258.55 654.365 253.055 653.855 251.29C651.55 243.307 644.305 225.366 638.506 213.279C622.39 179.691 600.172 149.026 572.365 121.994C521.758 72.7995 457.667 42.3446 387.143 33.9826C367.325 31.6326 331.923 31.4356 314.237 33.5786ZM150.289 143.25C143.43 148.098 143.378 153.393 150.008 171.522C159.927 198.642 164.859 217.594 169.513 246.464C171.242 257.193 172.81 263.739 174.293 266.425C178.065 273.257 185.833 277.018 193.25 275.603C197.153 274.858 202.191 271.865 220 259.712C232.163 251.412 233.645 250.079 234.969 246.25C236.261 242.512 236.261 241.492 234.969 237.783C232.806 231.572 228.074 228.652 221.272 229.33C215.503 229.905 208.113 233.5 202.075 238.667C199.934 240.5 197.7 242 197.11 242C195.921 242 195.881 241.831 193.48 227.068C189.871 204.869 176.692 160.908 169.446 146.895C166.356 140.92 156.293 139.005 150.289 143.25ZM648.5 398.55C604.687 408.021 578.603 424.877 562.629 454.041C559.304 460.112 559.125 460.867 560.143 464.541C561.691 470.123 560.587 484.288 558.033 491.625C552.283 508.145 537.162 523.09 521.217 528.015C517.682 529.107 513.037 530 510.895 530H507V534.29C507 540.667 504.329 549.814 500.722 555.79C496.563 562.68 488.101 571.083 481.95 574.431C476.786 577.242 465.98 579.954 459.829 579.983C456.501 579.998 456.095 580.303 455.472 583.25C453.243 593.794 440.734 608.591 429.092 614.453C417.487 620.298 403.417 621.349 390.32 617.352L385.14 615.77L381.889 619.635C380.101 621.761 373.882 628.264 368.069 634.087C360.064 642.106 355.893 645.46 350.878 647.912C337.599 654.403 321.039 654.404 307.209 647.916C301.772 645.365 298.32 642.555 289 633.096C282.675 626.677 275.925 619.091 274 616.238L270.5 611.052L263.932 611.026C244.435 610.949 227.295 598.481 223.503 581.616L222.352 576.5L214.994 575.759C196.367 573.883 182.239 560.148 180.35 542.078L179.735 536.187L175.42 535.54C168.982 534.575 159.746 529.533 155.017 524.403C149.018 517.895 144.833 508.393 144.225 499.903L143.732 493.005L139.616 491.921C126.057 488.349 116.076 477.475 110.082 459.744C106.359 448.727 104.671 445.636 99.1431 439.702C88.0331 427.776 67.1031 415.929 46.0001 409.621C39.6751 407.73 34.3941 406.285 34.2641 406.41C34.1351 406.536 34.6461 409.532 35.4011 413.069C54.3161 501.679 107.683 576.926 185.326 624.463C218.476 644.758 259.526 659.183 304 666.163C316.713 668.158 322.259 668.441 349 668.462C380.782 668.487 390.183 667.691 414.367 662.927C475.094 650.963 529.922 621.257 574.807 576C620.951 529.474 651.525 472.87 662.851 413C666.401 394.233 666.414 395.988 662.725 396.086C660.951 396.133 654.55 397.242 648.5 398.55ZM183.5 403.409C181.85 404.165 170.712 414.644 158.75 426.694C139.707 445.877 137 448.994 137 451.737C137 461.257 146.399 468.491 153.722 464.607C155.25 463.797 166.075 453.524 177.778 441.78C201.148 418.328 201.965 417.065 198.298 410.071C194.997 403.776 188.791 400.982 183.5 403.409ZM220.454 441.303C214.61 446.282 173.554 488.028 172.327 490.239C167.819 498.355 175.07 509 185.106 509C188.089 509 190.869 506.547 213.701 483.78C240.103 457.452 241.215 455.977 239.579 449.458C239.226 448.052 237.474 445.305 235.684 443.353C233.132 440.568 231.459 439.693 227.92 439.294C224.12 438.866 222.942 439.183 220.454 441.303ZM254 485.294C242.672 494.801 208.202 530.345 207.466 533.278C206.421 537.445 207.755 540.991 211.947 545.183C215.059 548.294 216.48 548.999 219.632 548.993C221.76 548.99 224.663 548.202 226.084 547.243C227.505 546.285 239.359 534.601 252.425 521.28C273.823 499.465 276.235 496.669 276.711 493.12C277.185 489.582 276.84 488.751 273.332 484.991C270.144 481.572 268.605 480.714 264.963 480.32C260.738 479.864 260.154 480.129 254 485.294ZM296.041 521.108C294.688 521.648 283.486 532.16 271.147 544.467C248.884 566.675 248.718 566.872 249.295 570.432C250.562 578.237 257.721 583.703 265.339 582.681C269.055 582.183 271.261 580.27 291.334 560.138L313.268 538.139L312.778 533.037C312.226 527.293 309.547 523.614 304.282 521.371C300.576 519.792 299.431 519.755 296.041 521.108ZM311.503 580.997L294.529 597.993L305.014 608.571C310.934 614.543 317.554 620.205 320.217 621.574C326.014 624.556 332.648 624.744 337.79 622.073C342.192 619.786 362.405 599.701 361.871 598.145C361.599 597.353 329.059 564 328.559 564C328.514 564 320.839 571.648 311.503 580.997Z" fill="#CBAC51" stroke="#EEA926" stroke-width="2" mask="url(#path-1-inside-1_144_170)"/>
</svg>
