<svg width="577" height="580" viewBox="0 0 577 580" fill="none" xmlns="http://www.w3.org/2000/svg">
<mask id="path-1-inside-1_144_172" fill="white">
<path fill-rule="evenodd" clip-rule="evenodd" d="M267 0.590806C265.075 0.816806 259.225 1.46381 254 2.03081C223.157 5.37281 185.657 16.5538 157.5 30.8038C130.324 44.5568 99.39 67.7888 79.599 89.3078C68.99 100.844 55.001 118.178 49.586 126.5C47.439 129.8 44.341 134.525 42.703 137C37.911 144.237 27.444 164.645 22.627 176.143C2.65304 223.816 -4.14496 280.412 3.60504 334.5C10.303 381.243 31.7661 431 61.4071 468.497C70.9211 480.533 97.41 507.245 108.5 515.988C146.046 545.585 190.136 565.799 237 574.9C240.025 575.488 244.75 576.418 247.5 576.968C250.25 577.518 260.487 578.516 270.25 579.185C301.194 581.307 332.052 578.105 363.5 569.509C399.622 559.635 435.976 541.411 466 518.126C476.89 509.681 497.856 489.339 508.905 476.5C523.058 460.053 538.818 435.442 548.405 414.816C569.679 369.044 578.185 326.005 575.94 275.5C574.076 233.566 565.175 198.521 546.986 161.5C533.18 133.4 517.387 110.761 496.514 89.1508C459.277 50.5978 417.18 25.2158 366.912 11.0098C341.407 3.8018 321.579 1.0118 292.5 0.538804C280.4 0.341804 268.925 0.365806 267 0.590806ZM267.916 31.5218C239.075 38.5248 208.245 71.3948 188.422 116.277C184.164 125.918 174.777 152.11 175.368 152.701C175.592 152.925 182.913 154.905 191.638 157.101C216.111 163.262 237.273 166.554 265.25 168.554L274 169.18V99.5898C274 61.3148 273.887 30.0368 273.75 30.0828C273.613 30.1288 270.987 30.7768 267.916 31.5218ZM302 99.9998V169H304.839C310.133 169 339.009 166.002 348.781 164.438C367.136 161.5 398.25 154.064 400.236 152.141C401.258 151.151 393.324 128.659 387.498 116.031C375.867 90.8258 363.458 72.4628 346.517 55.3868C337.846 46.6468 332.551 42.1938 327.5 39.3938C319.597 35.0128 308.863 31.0638 304.75 31.0258L302 30.9998V99.9998ZM376.518 46.0708C394.073 65.4208 412.774 99.0718 422.573 128.946C424.458 134.692 426 139.953 426 140.637C426 143.036 427.637 142.826 435.536 139.414C449.762 133.27 479.062 117.327 480.548 114.922C480.82 114.483 477.756 110.833 473.741 106.812C444.057 77.0838 411.857 56.2238 374 42.1978C373.175 41.8918 374.308 43.6348 376.518 46.0708ZM198.5 43.9698C178.655 52.2508 171.738 55.5008 161.584 61.3188C139.667 73.8748 121.361 87.8588 104.524 104.906L95.547 113.995L98.004 115.747C109.223 123.75 147.741 143.66 149.125 142.172C149.469 141.802 151.452 136.325 153.531 130C163.371 100.061 178.088 71.8408 194.861 50.7498C198.251 46.4878 200.906 43.0298 200.762 43.0678C200.618 43.1048 199.6 43.5108 198.5 43.9698ZM72.1271 144.812C49.6131 178.294 34.9 218.013 29.496 259.894C28.616 266.71 28.132 272.902 28.42 273.653C28.855 274.787 37.321 274.975 78.222 274.759L127.5 274.5L128.22 260.5C129.582 234.031 133.129 207.599 138.617 183.024C140.032 176.686 141.26 171.091 141.345 170.59C141.43 170.09 137 167.799 131.5 165.498C114.823 158.524 97.832 149.393 83.805 139.867L78.07 135.973L72.1271 144.812ZM488.191 143.057C477.914 149.857 452.892 162.744 441.5 167.104C438.2 168.366 435.193 169.647 434.819 169.95C434.444 170.252 435.191 174.841 436.479 180.147C441.997 202.875 446.458 235.065 447.65 260.75L448.311 275H498.096C525.478 275 548.069 274.663 548.298 274.25C548.964 273.05 547.137 256.494 544.96 244C538.912 209.293 522.122 169.151 501.824 140.868L498.5 136.236L488.191 143.057ZM166.61 187.165C161.322 210.982 157.632 235.478 155.98 257.725C155.359 266.098 155.14 273.417 155.493 273.989C155.927 274.691 175.296 275.015 215.068 274.984L274 274.939V235.469V196L265.75 195.979C254.742 195.952 231.486 193.636 215.644 190.989C205.162 189.238 180.079 183.412 170.369 180.474C168.418 179.884 168.101 180.448 166.61 187.165ZM395.5 183.126C372.314 189.847 342.972 194.52 316.75 195.667L302 196.312V235.656V275H360.941C393.359 275 420.117 274.62 420.404 274.156C421.243 272.798 419.15 244.823 416.965 228.182C415.269 215.266 410.198 187.816 408.388 181.75C407.741 179.583 407.709 179.587 395.5 183.126ZM28.404 310.75C31.591 347.081 42.444 383.564 58.832 413.033C65.126 424.351 77.448 443.541 79.061 444.538C79.605 444.874 82.85 443.395 86.275 441.253C98.433 433.646 116.681 424.024 129.5 418.461C136.65 415.358 142.62 412.702 142.768 412.559C142.915 412.415 141.689 406.719 140.045 399.899C133.499 372.759 129.74 346.238 128.403 317.75L127.71 303H77.717H27.724L28.404 310.75ZM155.471 312.75C156.518 328.257 157.959 342.673 159.596 354C161.202 365.119 168.645 400.979 169.531 401.864C169.819 402.152 173.979 401.344 178.777 400.069C209.475 391.912 246.632 386.003 267.25 386.001L274 386V344.5V303H214.407H154.813L155.471 312.75ZM302 344.302V385.605L318.25 386.838C347.019 389.021 385.98 395.848 402.066 401.523C404.368 402.336 406.407 403 406.598 403C407.313 403 409.997 391.991 412.936 377C416.081 360.963 419.371 333.832 420.544 314.25L421.219 303H361.609H302V344.302ZM447.996 309.75C447.983 330.818 443.367 367.841 437.428 394.5C435.467 403.3 433.782 411.081 433.682 411.791C433.576 412.541 437.277 414.676 442.5 416.879C459.095 423.879 483.627 436.833 494.154 444.154C495.614 445.169 497.009 446 497.254 446C497.811 446 507.45 431.537 512.305 423.417C517.802 414.223 529.405 389.72 533.393 378.885C540.435 359.752 546.121 333.819 548.551 309.75L549.233 303H498.616H448L447.996 309.75ZM247 415.071C229.414 416.535 191.595 424.316 179.645 428.928C176.163 430.272 176.161 430.257 183.185 448.282C192.651 472.574 205.267 494.702 220.458 513.66C235.5 532.432 252.572 544.111 271.25 548.406L274 549.038V481.519V414L265.25 414.14C260.438 414.217 252.225 414.636 247 415.071ZM302 481.426V549.159L305.25 548.475C307.038 548.098 311.2 546.9 314.5 545.812C343.425 536.274 374.247 497.904 393.934 446.927C397.211 438.442 399.531 431.138 399.091 430.696C397.472 429.068 358.999 420.083 342.943 417.582C333.837 416.164 320.899 414.709 314.193 414.348L302 413.693V481.426ZM131.495 448.368C121.598 453.435 109.992 459.778 105.705 462.463L97.91 467.346L103.205 472.788C124.254 494.423 154.75 515.511 184.309 528.871C200.749 536.302 205.464 537.374 199.846 532.405C196.328 529.293 184.75 513.232 178.289 502.5C168.197 485.738 159.854 467.898 153.054 448.536C151.322 443.606 149.812 439.478 149.697 439.364C149.583 439.249 141.392 443.301 131.495 448.368ZM425.693 440.75C425.459 441.163 424.252 444.65 423.012 448.5C416.801 467.768 405.613 491.463 394.918 508C389.608 516.21 386.23 520.882 375.526 534.816C373.89 536.946 373.835 537.277 375.201 536.753C409.098 523.746 442.033 503.02 467.797 478.482L479.094 467.723L470.297 462.288C462.267 457.327 428.465 440 426.817 440C426.432 440 425.927 440.337 425.693 440.75Z"/>
</mask>
<path fill-rule="evenodd" clip-rule="evenodd" d="M267 0.590806C265.075 0.816806 259.225 1.46381 254 2.03081C223.157 5.37281 185.657 16.5538 157.5 30.8038C130.324 44.5568 99.39 67.7888 79.599 89.3078C68.99 100.844 55.001 118.178 49.586 126.5C47.439 129.8 44.341 134.525 42.703 137C37.911 144.237 27.444 164.645 22.627 176.143C2.65304 223.816 -4.14496 280.412 3.60504 334.5C10.303 381.243 31.7661 431 61.4071 468.497C70.9211 480.533 97.41 507.245 108.5 515.988C146.046 545.585 190.136 565.799 237 574.9C240.025 575.488 244.75 576.418 247.5 576.968C250.25 577.518 260.487 578.516 270.25 579.185C301.194 581.307 332.052 578.105 363.5 569.509C399.622 559.635 435.976 541.411 466 518.126C476.89 509.681 497.856 489.339 508.905 476.5C523.058 460.053 538.818 435.442 548.405 414.816C569.679 369.044 578.185 326.005 575.94 275.5C574.076 233.566 565.175 198.521 546.986 161.5C533.18 133.4 517.387 110.761 496.514 89.1508C459.277 50.5978 417.18 25.2158 366.912 11.0098C341.407 3.8018 321.579 1.0118 292.5 0.538804C280.4 0.341804 268.925 0.365806 267 0.590806ZM267.916 31.5218C239.075 38.5248 208.245 71.3948 188.422 116.277C184.164 125.918 174.777 152.11 175.368 152.701C175.592 152.925 182.913 154.905 191.638 157.101C216.111 163.262 237.273 166.554 265.25 168.554L274 169.18V99.5898C274 61.3148 273.887 30.0368 273.75 30.0828C273.613 30.1288 270.987 30.7768 267.916 31.5218ZM302 99.9998V169H304.839C310.133 169 339.009 166.002 348.781 164.438C367.136 161.5 398.25 154.064 400.236 152.141C401.258 151.151 393.324 128.659 387.498 116.031C375.867 90.8258 363.458 72.4628 346.517 55.3868C337.846 46.6468 332.551 42.1938 327.5 39.3938C319.597 35.0128 308.863 31.0638 304.75 31.0258L302 30.9998V99.9998ZM376.518 46.0708C394.073 65.4208 412.774 99.0718 422.573 128.946C424.458 134.692 426 139.953 426 140.637C426 143.036 427.637 142.826 435.536 139.414C449.762 133.27 479.062 117.327 480.548 114.922C480.82 114.483 477.756 110.833 473.741 106.812C444.057 77.0838 411.857 56.2238 374 42.1978C373.175 41.8918 374.308 43.6348 376.518 46.0708ZM198.5 43.9698C178.655 52.2508 171.738 55.5008 161.584 61.3188C139.667 73.8748 121.361 87.8588 104.524 104.906L95.547 113.995L98.004 115.747C109.223 123.75 147.741 143.66 149.125 142.172C149.469 141.802 151.452 136.325 153.531 130C163.371 100.061 178.088 71.8408 194.861 50.7498C198.251 46.4878 200.906 43.0298 200.762 43.0678C200.618 43.1048 199.6 43.5108 198.5 43.9698ZM72.1271 144.812C49.6131 178.294 34.9 218.013 29.496 259.894C28.616 266.71 28.132 272.902 28.42 273.653C28.855 274.787 37.321 274.975 78.222 274.759L127.5 274.5L128.22 260.5C129.582 234.031 133.129 207.599 138.617 183.024C140.032 176.686 141.26 171.091 141.345 170.59C141.43 170.09 137 167.799 131.5 165.498C114.823 158.524 97.832 149.393 83.805 139.867L78.07 135.973L72.1271 144.812ZM488.191 143.057C477.914 149.857 452.892 162.744 441.5 167.104C438.2 168.366 435.193 169.647 434.819 169.95C434.444 170.252 435.191 174.841 436.479 180.147C441.997 202.875 446.458 235.065 447.65 260.75L448.311 275H498.096C525.478 275 548.069 274.663 548.298 274.25C548.964 273.05 547.137 256.494 544.96 244C538.912 209.293 522.122 169.151 501.824 140.868L498.5 136.236L488.191 143.057ZM166.61 187.165C161.322 210.982 157.632 235.478 155.98 257.725C155.359 266.098 155.14 273.417 155.493 273.989C155.927 274.691 175.296 275.015 215.068 274.984L274 274.939V235.469V196L265.75 195.979C254.742 195.952 231.486 193.636 215.644 190.989C205.162 189.238 180.079 183.412 170.369 180.474C168.418 179.884 168.101 180.448 166.61 187.165ZM395.5 183.126C372.314 189.847 342.972 194.52 316.75 195.667L302 196.312V235.656V275H360.941C393.359 275 420.117 274.62 420.404 274.156C421.243 272.798 419.15 244.823 416.965 228.182C415.269 215.266 410.198 187.816 408.388 181.75C407.741 179.583 407.709 179.587 395.5 183.126ZM28.404 310.75C31.591 347.081 42.444 383.564 58.832 413.033C65.126 424.351 77.448 443.541 79.061 444.538C79.605 444.874 82.85 443.395 86.275 441.253C98.433 433.646 116.681 424.024 129.5 418.461C136.65 415.358 142.62 412.702 142.768 412.559C142.915 412.415 141.689 406.719 140.045 399.899C133.499 372.759 129.74 346.238 128.403 317.75L127.71 303H77.717H27.724L28.404 310.75ZM155.471 312.75C156.518 328.257 157.959 342.673 159.596 354C161.202 365.119 168.645 400.979 169.531 401.864C169.819 402.152 173.979 401.344 178.777 400.069C209.475 391.912 246.632 386.003 267.25 386.001L274 386V344.5V303H214.407H154.813L155.471 312.75ZM302 344.302V385.605L318.25 386.838C347.019 389.021 385.98 395.848 402.066 401.523C404.368 402.336 406.407 403 406.598 403C407.313 403 409.997 391.991 412.936 377C416.081 360.963 419.371 333.832 420.544 314.25L421.219 303H361.609H302V344.302ZM447.996 309.75C447.983 330.818 443.367 367.841 437.428 394.5C435.467 403.3 433.782 411.081 433.682 411.791C433.576 412.541 437.277 414.676 442.5 416.879C459.095 423.879 483.627 436.833 494.154 444.154C495.614 445.169 497.009 446 497.254 446C497.811 446 507.45 431.537 512.305 423.417C517.802 414.223 529.405 389.72 533.393 378.885C540.435 359.752 546.121 333.819 548.551 309.75L549.233 303H498.616H448L447.996 309.75ZM247 415.071C229.414 416.535 191.595 424.316 179.645 428.928C176.163 430.272 176.161 430.257 183.185 448.282C192.651 472.574 205.267 494.702 220.458 513.66C235.5 532.432 252.572 544.111 271.25 548.406L274 549.038V481.519V414L265.25 414.14C260.438 414.217 252.225 414.636 247 415.071ZM302 481.426V549.159L305.25 548.475C307.038 548.098 311.2 546.9 314.5 545.812C343.425 536.274 374.247 497.904 393.934 446.927C397.211 438.442 399.531 431.138 399.091 430.696C397.472 429.068 358.999 420.083 342.943 417.582C333.837 416.164 320.899 414.709 314.193 414.348L302 413.693V481.426ZM131.495 448.368C121.598 453.435 109.992 459.778 105.705 462.463L97.91 467.346L103.205 472.788C124.254 494.423 154.75 515.511 184.309 528.871C200.749 536.302 205.464 537.374 199.846 532.405C196.328 529.293 184.75 513.232 178.289 502.5C168.197 485.738 159.854 467.898 153.054 448.536C151.322 443.606 149.812 439.478 149.697 439.364C149.583 439.249 141.392 443.301 131.495 448.368ZM425.693 440.75C425.459 441.163 424.252 444.65 423.012 448.5C416.801 467.768 405.613 491.463 394.918 508C389.608 516.21 386.23 520.882 375.526 534.816C373.89 536.946 373.835 537.277 375.201 536.753C409.098 523.746 442.033 503.02 467.797 478.482L479.094 467.723L470.297 462.288C462.267 457.327 428.465 440 426.817 440C426.432 440 425.927 440.337 425.693 440.75Z" fill="#CBAC51" stroke="#EEA926" stroke-width="2" mask="url(#path-1-inside-1_144_172)"/>
</svg>
