<svg width="551" height="546" viewBox="0 0 551 546" fill="none" xmlns="http://www.w3.org/2000/svg">
<path d="M138.782 0.908203C175.032 0.862579 224.688 0.853125 279 0.890625L476.422 1.02637L483.851 3.3584C510.571 11.745 530.646 28.5672 541.609 51.7148C542.771 54.1682 543.785 55.9884 544.638 57.6641C545.494 59.346 546.207 60.916 546.808 62.9346C548.014 66.9859 548.781 72.8832 549.27 85.1182C550.247 109.578 550.106 159.168 550.268 269.501C550.425 376.82 550.588 427.253 549.914 452.917C549.577 465.753 549.031 472.36 548.178 476.779C547.327 481.185 546.176 483.406 544.566 487.555C533.861 515.14 507.039 537.561 478.134 543.092V543.093C477.826 543.152 477.15 543.214 476.095 543.276C475.051 543.338 473.665 543.397 471.958 543.455C468.545 543.571 463.857 543.678 458.077 543.777C446.518 543.976 430.595 544.141 411.763 544.273C374.098 544.538 324.799 544.671 275.502 544.671C226.205 544.671 176.911 544.539 139.257 544.275C120.43 544.143 104.513 543.978 92.9619 543.78C87.1858 543.681 82.5027 543.573 79.0938 543.458C77.3891 543.4 76.0052 543.341 74.9639 543.279C73.9104 543.217 73.2375 543.154 72.9326 543.096C51.8918 539.04 31.7299 526.491 18.8154 509.414C12.6833 501.305 6.02191 487.396 3.23438 476.872L1 468.435V272.5L1.00781 211.03C1.02606 157.014 1.08461 124.381 1.26074 104.301C1.37818 90.9126 1.54766 83.1128 1.79199 78.2803C2.03628 73.449 2.35471 71.611 2.75879 70.1318C5.82602 58.9104 9.4726 50.4482 14.6445 42.5244C29.3111 20.0577 52.2675 5.31118 79.0771 1.13672C79.0839 1.13621 79.1067 1.13427 79.1543 1.13184C79.2138 1.1288 79.296 1.12527 79.4014 1.12207C79.6118 1.11569 79.9075 1.10978 80.2871 1.10352C81.0462 1.09099 82.1353 1.07909 83.5371 1.06738C86.3406 1.04397 90.3928 1.02171 95.5566 1.00195C105.884 0.96244 120.657 0.931015 138.782 0.908203ZM275.29 216.504C339.601 216.502 372.823 216.517 390.417 216.762C399.218 216.884 404.092 217.064 406.987 217.327C409.868 217.589 410.74 217.929 411.562 218.351C413.453 219.322 414.714 219.898 415.656 221.007C416.585 222.099 417.238 223.763 417.673 226.993C418.545 233.47 418.5 245.857 418.5 271.454C418.5 296.685 418.527 309.006 417.753 315.529C417.366 318.787 416.787 320.513 415.964 321.668C415.138 322.827 414.038 323.463 412.394 324.479L409.123 326.5H276.082C202.532 326.5 168.298 326.612 151.932 325.882C147.842 325.699 144.882 325.464 142.708 325.164C140.529 324.863 139.174 324.502 138.275 324.08C137.401 323.67 136.953 323.2 136.594 322.64C136.406 322.347 136.242 322.028 136.052 321.656C135.864 321.29 135.655 320.881 135.387 320.441C134.946 319.719 134.616 319.057 134.359 317.798C134.098 316.514 133.913 314.611 133.785 311.409C133.53 305.011 133.505 293.536 133.504 271.7C133.502 246.402 133.481 233.983 134.253 227.391C134.639 224.098 135.216 222.344 136.032 221.177C136.85 220.009 137.938 219.376 139.56 218.388V218.387C139.927 218.163 140.274 217.975 140.852 217.808C141.442 217.636 142.287 217.482 143.646 217.347C146.366 217.076 151.065 216.892 159.749 216.767C177.108 216.517 210.318 216.505 275.29 216.504ZM162.5 297.5H388.5V245.5H162.5V297.5ZM275.5 30.624C221.875 30.65 172.673 30.7644 136.604 30.9268C118.569 31.0079 103.816 31.1006 93.4346 31.2012C88.2442 31.2515 84.1452 31.3041 81.2744 31.3574C79.8393 31.3841 78.7091 31.4112 77.9023 31.4385C77.4995 31.4521 77.1746 31.4655 76.9316 31.4795C76.8176 31.4861 76.7123 31.4938 76.6221 31.502L76.4014 31.5303C55.6556 35.6833 37.3966 53.2699 32.0645 74.2168C30.9447 78.6143 30.5368 86.6017 30.4639 104.838L30.3652 129.498L30.3633 130H522V129.5L521.984 105C521.971 84.2043 521.699 79.5413 520.123 74.3545C513.689 53.1933 496.96 36.7535 477.012 32.0508C475.557 31.7081 472.878 31.4495 467.065 31.249C461.237 31.048 452.217 30.9051 438.049 30.8057C409.711 30.6068 360.758 30.5825 275.5 30.624ZM477.552 69.5L480.824 71.6865C487.594 76.2097 489.264 85.1499 484.577 91.7324C483.396 93.391 483.116 94.3718 481.232 95.1572C479.274 95.9738 475.64 96.5254 467.816 96.8789C452.214 97.5839 420.279 97.5 352.68 97.5H229.447L226.176 95.3145C224.293 94.0566 222.619 92.1453 221.417 90.0127C220.214 87.8783 219.503 85.5591 219.503 83.5C219.503 81.4409 220.214 79.1216 221.417 76.9873C222.619 74.855 224.293 72.9443 226.176 71.6865L229.448 69.5H477.552ZM125.435 69.7246C149.58 69.8576 162.107 69.9442 168.921 70.2383C172.332 70.3855 174.278 70.5836 175.524 70.8564C176.736 71.1218 177.271 71.4541 177.866 71.9004C183.922 76.4452 185.557 84.793 181.649 91.1162C180.598 92.817 179.92 93.9657 178.659 94.8291C177.397 95.6931 175.499 96.3008 171.95 96.707C165.736 97.4185 154.715 97.4926 133.821 97.5H75.4473L72.1758 95.3145C63.5248 89.5355 63.5415 77.4543 72.2148 71.6592L75.5234 69.4473L125.435 69.7246ZM522 160.001L521.501 160L276.251 159.754C208.807 159.686 147.492 159.709 103.039 159.8C80.8127 159.845 62.8005 159.908 50.3447 159.984C44.1173 160.023 39.2776 160.064 35.9941 160.109C34.353 160.132 33.0982 160.155 32.2529 160.18C31.8313 160.192 31.5068 160.205 31.2861 160.218C31.1776 160.224 31.0853 160.23 31.0166 160.238C30.9852 160.242 30.9416 160.248 30.8994 160.258C30.8823 160.262 30.8364 160.274 30.7852 160.298C30.7565 160.312 30.6899 160.356 30.6523 160.389C30.5975 160.449 30.5101 160.629 30.4941 160.749C30.4901 161.162 30.4977 229.453 30.5117 312.5C30.5222 377.934 30.5783 415.901 30.7949 438.201C30.9032 449.35 31.0517 456.589 31.2549 461.39C31.4576 466.179 31.7166 468.574 32.0547 470.012C36.7627 490.027 54.1346 507.898 73.874 513.021C75.425 513.424 77.5828 513.725 82.7227 513.957C87.8677 514.189 96.0331 514.353 109.617 514.469C136.788 514.7 185.668 514.739 275.5 514.752C384.299 514.767 434.411 514.916 459.125 514.11C471.472 513.708 477.528 513.066 481.408 512.035C485.298 511.001 487.036 509.554 490.576 507.693C504.431 500.413 514.976 487.749 519.759 472.651L521.977 465.651L522 465.578V160.001Z" fill="#CBAC51" stroke="#EEA926"/>
</svg>
