<svg width="1185" height="414" viewBox="0 0 1185 414" fill="none" xmlns="http://www.w3.org/2000/svg">
<mask id="path-1-inside-1_144_178" fill="white">
<path fill-rule="evenodd" clip-rule="evenodd" d="M110.789 40.75C33.9818 143.538 21.2948 163.178 10.1438 196.561C2.23385 220.24 -0.497144 239.268 0.319856 265C0.938856 284.5 2.41885 293.935 7.44185 310.403C18.2168 345.729 45.4389 379.829 76.0229 396.313C98.7719 408.575 124.393 414.059 152 412.576C189.06 410.586 219.763 397.341 244.112 372.838C262.973 353.859 273.347 337.134 281.538 312.5C286.042 298.953 287.759 290.107 289.168 273.171C291.506 245.076 286.824 215.628 275.811 189.167C265.639 164.726 255.753 148.657 226.188 108.5C219.304 99.15 209.538 85.875 204.486 79C157.09 14.499 147.617 1.866 145.997 0.998001C144.971 0.449001 143.481 0 142.685 0C141.89 0 127.537 18.338 110.789 40.75ZM129.528 45.798C122.393 55.534 109.086 73.625 99.9558 86C82.9598 109.038 57.9998 143.682 57.9998 144.235C57.9998 144.405 73.0938 144.369 91.5418 144.155C122.563 143.796 125.232 143.9 127.042 145.538C129.764 148.001 129.485 151.646 126.354 154.548C123.754 156.957 123.402 157 106.104 157.003C96.4219 157.004 79.4539 157.298 68.3969 157.657L48.2949 158.308L41.7218 170.904C34.0938 185.52 28.3949 199.48 24.4319 213.251L21.6268 223.001L24.1648 225.751C25.9568 227.691 46.9168 255.566 50.4648 260.728C50.5508 260.853 53.5409 258.107 57.1089 254.626C67.1939 244.785 74.9798 243.796 86.2238 250.927C90.7878 253.822 96.3119 260.257 97.5319 264.101C97.9579 265.443 99.0699 266 101.324 266C113.293 266 122.271 274.434 123.866 287.175C124.481 292.086 124.64 292.295 129.113 294.049L133.726 295.859L134.908 291.913C137.256 284.075 146.131 277.073 153.782 277.022C159.608 276.983 164.298 279.883 174.5 289.832C193.478 308.34 196.647 311.002 199.676 310.978C207.756 310.914 212.071 299.743 206.166 294.173C196.473 285.029 165 253.443 165 252.859C165 252.471 166.165 250.769 167.589 249.077C169.336 247.001 171.081 246 172.956 246C175.745 246 177.343 247.409 210.5 279.115C214.9 283.322 219.479 287.062 220.677 287.426C223.617 288.321 229.181 285.857 231.832 282.486C234.401 279.22 234.625 274.437 232.453 269.218C230.736 265.091 168.543 202 166.192 202C165.45 202 161.616 204.627 157.671 207.838C144.404 218.64 126.291 231.703 122.983 232.856C118.693 234.352 110.78 234.313 105.616 232.771C103.097 232.019 99.5019 229.594 96.3509 226.521C91.9809 222.26 91.0279 220.643 90.0479 215.835C88.6359 208.907 90.3959 200.792 94.4669 195.455C95.9139 193.557 102.589 187.649 109.299 182.326C116.01 177.003 126.78 168.417 133.234 163.246C149.602 150.131 156.974 145.386 162.983 144.097C166.031 143.443 179.844 143 197.156 143C222.379 143 226.139 142.805 225.647 141.522C224.986 139.801 214.178 124.682 182.381 81C149.38 35.665 143.684 27.994 143.058 28.048C142.751 28.075 136.663 36.062 129.528 45.798ZM707.477 64.988C691.681 67.31 679.54 73.386 668.456 84.516C662.242 90.756 659.46 94.516 656.227 101.047C649.264 115.111 647.659 122.774 647.648 142C647.639 157.079 647.87 159.257 650.328 167.297C656.365 187.038 666.566 200.006 683.025 208.863C694.888 215.246 704.101 217.402 719.5 217.397C734.96 217.392 741.783 216.079 752.5 211.049C772.35 201.733 785.014 186.811 791.197 165.455C793.187 158.583 793.5 155.255 793.5 141C793.5 126.857 793.169 123.286 791.182 116C785.094 93.673 769.712 76.443 748.869 68.605C738.519 64.712 720.226 63.114 707.477 64.988ZM334.75 67.014C330.395 69.714 334.178 74 340.916 74C345.976 74 349.736 75.951 351.156 79.315C352.23 81.86 352.5 94.255 352.5 141C352.5 205.863 352.688 203.953 345.989 207.181C344.07 208.105 340.56 209.369 338.188 209.989C334.586 210.932 333.928 211.478 334.188 213.309L334.5 215.5L371 215.804C394.959 216.004 410.029 215.715 414.861 214.964C441.192 210.868 463.833 195.281 473.635 174.5C478.387 164.426 480.095 157.051 480.714 143.942C482.566 104.662 461.638 77.562 422.736 68.866C414.521 67.03 409.245 66.753 375 66.365C348.342 66.063 335.962 66.263 334.75 67.014ZM497.04 67.452C495.058 69.84 496.249 72.365 499.757 73.215C501.541 73.647 504.462 74.347 506.25 74.772C508.564 75.322 510.008 76.546 511.265 79.022C512.902 82.248 513.011 86.818 512.765 142.177C512.504 200.982 512.469 201.896 510.406 204.659C509.008 206.531 506.514 207.983 502.906 209.027C498.258 210.372 497.5 210.936 497.5 213.046V215.5H525.5H553.5V213.045C553.5 210.981 552.862 210.461 549.5 209.784C547.3 209.341 544.321 208.503 542.88 207.922C537.937 205.928 537.535 203.62 537.194 175.25L536.879 149L547.189 149.043L557.5 149.085L572.429 173.035C580.64 186.208 590.1 201.151 593.451 206.242L599.544 215.5L615.794 215.775C630.173 216.018 632.117 215.859 632.681 214.389C633.602 211.989 631.753 209.634 628.405 208.943C626.807 208.614 624.506 207.72 623.292 206.957C621.16 205.619 580.265 145.28 581.092 144.693C581.316 144.534 584.622 142.853 588.437 140.957C596.445 136.979 605.021 129.55 608.454 123.617C618.668 105.968 612.091 82.085 594.7 73.669C581.714 67.385 570.232 66.062 528.372 66.026C503.233 66.004 498.045 66.24 497.04 67.452ZM813.061 67.426C810.861 70.078 812.237 72.44 816.511 73.347C824.428 75.028 826.819 76.613 827.989 80.957C828.729 83.709 828.984 103.806 828.788 144.08L828.5 203.165L825.313 206.012C823.161 207.935 820.565 209.068 817.313 209.504C810.408 210.43 809.824 210.736 810.18 213.246L810.5 215.5H840.5H870.5V213.088C870.5 210.927 869.837 210.54 864.155 209.381C860.665 208.669 857.185 207.569 856.422 206.935C853.727 204.699 853.011 198.265 853.006 176.25L853 154L861.25 153.992C871.565 153.982 885.646 152.402 893.5 150.374C908.262 146.563 921.483 136.613 926.764 125.34C929.248 120.038 929.5 118.442 929.5 108C929.5 97.464 929.268 96.028 926.736 90.874C923.695 84.683 916.441 77.286 910.38 74.194C904.093 70.986 893.142 68.043 884 67.103C879.325 66.622 861.727 66.166 844.894 66.089C818.992 65.97 814.099 66.175 813.061 67.426ZM707.5 77.401C691.416 81.362 679.53 94.446 674.254 114C672.872 119.122 672.5 124.527 672.5 139.5C672.5 156.263 672.766 159.418 674.76 166.299C677.776 176.704 681.819 184.471 687.524 190.816C698.104 202.583 714.258 207.365 732.04 203.992C749.853 200.614 763.52 185.831 768.576 164.472C770.706 155.475 770.758 133.411 768.673 122.937C764.891 103.934 754.196 88.123 740.44 81.197C730.797 76.343 717.856 74.851 707.5 77.401ZM376.985 77.595C376.977 78.093 376.984 106.362 377 140.415C377.021 184.199 377.354 202.721 378.137 203.665C379.979 205.885 404.845 205.469 414.259 203.062C431.415 198.674 443.192 189.09 450.586 173.5C460.203 153.219 458.818 124.597 447.276 105.133C440.194 93.191 426.941 83.161 413.5 79.57C406.727 77.761 377.009 76.153 376.985 77.595ZM537 107.98V139.256L550.75 138.808C563.074 138.406 565.135 138.073 570.626 135.599C582.684 130.165 588.521 120.95 588.427 107.5C588.362 98.099 585.845 91.768 579.9 86.051C573.611 80.004 566.594 77.886 550.75 77.253L537 76.703V107.98ZM853 109.855V143L861.75 142.98C880.754 142.937 890.509 139.772 898.051 131.204C903.452 125.069 905.346 118.726 904.792 108.633C904.163 97.179 899.565 88.907 890.726 83.327C884.479 79.383 878.388 77.943 865.25 77.305L853 76.709V109.855ZM169.034 157.152C166.578 157.602 162.528 159.246 160.034 160.805C153.434 164.933 108.326 200.77 105.987 203.744C103.079 207.44 103.282 214.373 106.388 217.479C109.358 220.449 114.961 221.626 118.109 219.942C119.385 219.259 130.503 211.117 142.816 201.85C160.762 188.342 165.828 185 168.357 185C171.165 185 175.065 188.555 203.861 217.36L236.21 249.721L251.719 239.145L267.227 228.568L266.666 224.034C265.248 212.581 254.305 186.507 242.195 165.728L236.5 155.956L205 156.145C187.675 156.25 171.49 156.703 169.034 157.152ZM18.5248 251C16.7288 274.629 22.6148 302.409 34.3398 325.637C46.0328 348.799 67.2148 370.936 88.9998 382.761C115.443 397.113 151.748 400.181 181.24 390.553C213.177 380.128 240.645 355.641 256.956 323.053C267.124 302.74 272.669 273.307 270.563 250.832L269.848 243.195L263.67 247.848C260.272 250.406 254.275 254.687 250.344 257.36L243.196 262.219L245.076 266.36C250.5 278.306 245.037 292.229 232.62 298.103C229.254 299.696 225.488 300.999 224.25 300.999C222.509 301 222 301.573 222 303.532C222 307.233 219.703 312.129 215.977 316.374C211.991 320.913 208.9 322.592 202.867 323.497C198.555 324.144 198.183 324.445 197.061 328.192C196.401 330.394 194.057 334.153 191.852 336.545C186.723 342.109 180.937 344.379 173.284 343.83L167.5 343.415L156.715 355.635C143.782 370.288 140.289 372.442 130.471 371.817C125.348 371.491 123.175 370.799 119.779 368.412C114.822 364.928 111.328 359.27 110.416 353.25C109.863 349.595 109.433 349 107.347 349C103.857 349 97.6728 345.588 94.6498 341.996C93.2188 340.295 91.2739 336.724 90.3279 334.06C88.6829 329.429 88.4169 329.194 84.2849 328.729C75.7669 327.769 66.7188 318.979 65.4348 310.417C64.7938 306.143 64.6578 306 61.2018 306C48.6448 306 38.8089 292.303 41.9529 279.196L43.1669 274.137L33.0329 260.318C27.4599 252.718 22.0779 245.375 21.0739 244L19.2478 241.5L18.5248 251ZM66.3818 264.462C64.0308 266.916 60.2359 271.291 57.9489 274.184C54.1439 278.997 53.8328 279.828 54.2968 283.94C54.9118 289.403 59.3378 294 63.9818 294C66.4648 294 68.3649 292.385 75.9659 283.82C80.9349 278.221 84.9998 273.037 84.9998 272.3C84.9998 270.271 80.3818 263.381 77.8188 261.586C73.9608 258.883 71.0178 259.623 66.3818 264.462ZM334.384 264.442C332.988 268.079 334.416 269.481 340.261 270.211C346.972 271.049 349.487 272.213 351.203 275.273C352.928 278.349 352.797 393.055 351.063 398.311C349.529 402.956 348.128 403.988 340.717 405.926C335.207 407.366 334.5 407.833 334.5 410.026V412.5L363 412.791C392.79 413.095 409.393 412.134 419.5 409.521C436.394 405.154 449.74 394.3 454.016 381.453C456.883 372.835 456.469 362.668 452.952 355.395C448.305 345.782 436.047 336.974 423.169 333.995C417.474 332.677 417.44 331.903 423 330.118C427.65 328.626 435.667 322.459 439.514 317.415C446.682 308.017 448.179 291.101 442.674 281.707C437.625 273.091 428.104 267.233 414.792 264.552C403.801 262.339 335.227 262.244 334.384 264.442ZM466.163 263.878C465.427 264.345 464.977 265.779 465.163 267.066C465.454 269.088 466.358 269.561 471.813 270.544C483.26 272.607 482.41 268.662 483.072 322.776C483.604 366.231 483.792 370.035 485.757 377.154C488.696 387.804 492.318 394.459 498.293 400.188C507.586 409.098 517.757 412.535 538 413.606C567.392 415.161 586.876 404 594.049 381.5C594.975 378.595 595.488 363.815 595.922 327.5C596.419 285.941 596.768 277.123 597.989 275.269C599.787 272.537 600.896 272.046 608.5 270.618C613.669 269.647 614.547 269.161 614.837 267.109C615.023 265.798 614.573 264.345 613.837 263.878C613.102 263.412 601.62 263.024 588.321 263.015C567.66 263.002 563.914 263.229 562.571 264.571C559.216 267.927 561.203 269.647 569.815 270.84C578.23 272.007 579.589 272.861 580.977 277.858C582.387 282.932 582.329 365.854 580.911 373.526C579.568 380.788 575.857 388.301 571.665 392.245C569.924 393.883 565.575 396.636 562 398.362C555.871 401.321 554.843 401.5 544 401.5C530.199 401.5 524.869 399.829 517.908 393.317C512.428 388.191 508.56 380.23 507.067 371C505.636 362.157 505.639 280.335 507.07 276.229C508.349 272.56 509.41 272.034 518.492 270.567C523.832 269.705 525.565 269.021 525.825 267.671C526.686 263.198 525.398 262.999 495.628 263.015C480.157 263.024 466.898 263.412 466.163 263.878ZM627.409 264.377C626.032 267.965 627.414 269.46 632.83 270.24C640.005 271.272 641.739 272.382 643.025 276.766C643.78 279.341 644.023 298.821 643.81 339.5C643.555 388.067 643.249 398.99 642.079 401.273C640.958 403.46 639.203 404.488 633.774 406.137C627.829 407.943 626.932 408.519 627.195 410.364C627.498 412.486 627.68 412.5 654.891 412.5C679.724 412.5 682.384 412.339 683.369 410.778C684.878 408.384 683.416 407.204 677.594 406.117C671.817 405.037 669.169 402.643 667.953 397.401C667.455 395.255 667.037 382.813 667.024 369.75L667 346H676.255H685.51L700.505 369.733C720.467 401.327 727.039 411.35 728.381 412.249C728.997 412.66 736.475 412.885 745 412.749L760.5 412.5V410C760.5 407.858 759.733 407.254 755.144 405.784C752.198 404.841 749.13 403.523 748.327 402.856C747.231 401.947 708.611 344.728 707.248 341.995C707.11 341.718 709.707 340.44 713.018 339.156C726.514 333.923 736.111 324.787 740.151 313.328C743.246 304.549 742.502 291.491 738.489 284.141C733.601 275.188 725.575 269.673 711.564 265.64C705.135 263.79 701.062 263.574 666.243 263.239C632.866 262.918 627.913 263.064 627.409 264.377ZM774.938 264.575C772.751 267.21 775.068 269.406 780.928 270.252C788.003 271.272 789.743 272.396 791.021 276.766C791.771 279.332 792.016 299.009 791.806 339.677C791.504 398.006 791.47 398.896 789.399 401.677C787.889 403.705 785.658 404.923 781.479 406C775.424 407.561 773.962 409.045 776.028 411.534C777.804 413.674 881.136 413.746 882.91 411.608C884.913 409.195 887.237 381.804 885.656 379.25C884.023 376.612 881.914 378.231 879.139 384.25C877.554 387.688 874.512 392.122 872.379 394.104C865.546 400.452 861.996 401.281 839.5 401.776C819.853 402.21 819.465 402.178 817.5 400.004C815.598 397.898 815.501 396.4 815.52 369.296L815.54 340.801L831.008 340.948C850.009 341.128 851.581 341.756 854.368 350.284C855.947 355.116 856.604 356 858.618 356C860.993 356 861 355.963 861.092 343.75C861.143 337.013 861.256 327.675 861.342 323C861.498 314.584 861.476 314.5 859.028 314.5C857.031 314.5 856.254 315.321 854.976 318.78C851.557 328.037 845.684 330.293 826.336 329.785L815.5 329.5L815.428 301.75L815.356 274L833.928 274.02C865.498 274.054 870.568 275.706 876.162 287.78C877.875 291.476 879.597 295.175 879.99 296C880.383 296.825 881.655 297.642 882.817 297.815C885.913 298.276 886.291 295.356 885.335 278.345L884.5 263.5L830.38 263.241C781.895 263.01 776.121 263.149 774.938 264.575ZM962.662 263.75C961.889 265.02 956.6 279.154 944.608 312C922.895 371.467 913.014 397.504 911.214 400C910.223 401.375 906.817 403.767 903.645 405.316C898.94 407.613 897.935 408.533 898.189 410.316C898.495 412.467 898.799 412.504 918.5 412.783C929.5 412.939 939.513 412.818 940.75 412.514C942.303 412.133 943 411.22 943 409.569C943 407.522 942.385 407.082 938.75 406.527C929.246 405.076 926.24 402.12 927.342 395.309C927.681 393.214 930.556 384.393 933.729 375.707L939.5 359.915L965 359.888C985.104 359.866 990.654 360.14 991.23 361.18C993.192 364.73 1002.33 390.092 1003.28 394.624C1004.21 399.02 1004.12 400.174 1002.67 402.378C1001.74 403.803 999.743 405.223 998.237 405.534C990.12 407.213 989.5 407.532 989.5 410.037V412.5H1016.5H1043.5L1043.81 409.807C1044.09 407.395 1043.72 407.041 1040.31 406.423C1035.22 405.501 1031.33 403.443 1029.56 400.729C1027.41 397.441 1018.56 374.686 996.983 317C986.388 288.675 977.277 264.938 976.737 264.25C975.671 262.893 963.447 262.459 962.662 263.75ZM1035.61 264.566C1035.28 265.445 1035 266.781 1035 267.535C1035 269.042 1040.79 270.968 1045.5 271.026C1049.75 271.079 1051.76 272.989 1052.93 278.078C1053.53 280.693 1053.96 299.505 1053.98 324.119C1053.99 356.709 1054.33 367.665 1055.52 374.619C1060.09 401.336 1077.69 414.081 1109.84 413.965C1138.93 413.86 1154.28 404.902 1162.16 383.42C1164.51 377.025 1164.6 374.706 1165.25 304.272L1165.5 277.043L1168.15 274.395C1170.14 272.409 1172.51 271.466 1177.65 270.623C1184.34 269.525 1184.5 269.432 1184.5 266.5V263.5H1158.5H1132.5V266.492C1132.5 269.363 1132.74 269.528 1138.5 270.565C1145.4 271.806 1148.4 273.201 1149.63 275.722C1151.03 278.624 1151.36 366.365 1149.99 374.23C1147.78 386.999 1138.94 396.782 1126.02 400.789C1118.69 403.061 1103.35 403.007 1096.5 400.685C1089.92 398.452 1082.55 392.01 1079.34 385.688C1074.67 376.463 1074.07 369.294 1074.03 321.7C1074 284.643 1074.23 277.453 1075.5 274.995C1077.03 272.048 1077.28 271.95 1088 270.185C1092.16 269.501 1092.5 269.219 1092.5 266.472V263.5L1064.36 263.235C1039.36 262.999 1036.16 263.147 1035.61 264.566ZM375.555 300.75L375.692 328.5L383.035 328.798C404.061 329.65 417.536 322.863 421.101 309.625C422.887 302.992 421.876 292.178 418.936 286.465C413.982 276.837 404.795 273.032 386.459 273.012L375.418 273L375.555 300.75ZM667.236 304.121L667.5 335.5L674 335.809C682.676 336.222 694.55 334.551 700.226 332.117C714.558 325.974 721.05 310.4 716.088 294.064C713.481 285.481 708.7 280.126 700.148 276.209C695.169 273.929 692.871 273.571 680.736 273.183L666.971 272.743L667.236 304.121ZM90.9409 287.19C79.0189 300.312 77.9998 301.81 77.9998 306.214C77.9998 309.235 78.6819 310.835 80.9229 313.077C83.7869 315.941 86.3458 316.551 90.6498 315.396C92.8828 314.797 105.228 300.957 108.895 294.94C112.518 288.998 111.584 284.346 106.027 280.646C101.176 277.416 98.9399 278.385 90.9409 287.19ZM958.831 303.753C949.232 330.419 944.263 344.401 943.549 346.75L942.865 349H964.433C982.111 349 986 348.751 986 347.619C986 346.86 984.834 343.147 983.41 339.369C976.439 320.882 966 291.051 966 289.616C966 285.415 964.045 289.271 958.831 303.753ZM148.589 293.077C146.819 295.181 146 297.33 146 299.875C146 303.333 146.983 304.568 159.868 317.298C174.473 331.729 176.144 332.689 180.883 329.369C182.164 328.472 183.852 326.205 184.635 324.331C186.416 320.069 187.16 321.077 169.428 303.75C160.434 294.962 154.602 290 153.267 290C152.118 290 150.013 291.385 148.589 293.077ZM114.459 310.218C111.292 313.638 106.995 318.595 104.909 321.235C101.489 325.561 101.218 326.326 102.152 329.007C103.423 332.653 108.396 337 111.295 337C114.65 337 135.877 314.228 134.54 312.064C133.808 310.88 122.303 304 121.054 304C120.593 304 117.625 306.798 114.459 310.218ZM134.131 334.2C125.063 344.273 123.053 347.068 123.029 349.639C122.97 355.982 129.903 360.156 135.775 357.312C137.447 356.502 141.894 352.201 145.658 347.754C149.421 343.307 153.744 338.2 155.265 336.405L158.029 333.141L152.423 327.821C149.34 324.894 146.454 322.365 146.01 322.2C145.566 322.036 140.22 327.436 134.131 334.2ZM375.837 365.25C375.478 393.198 375.885 399.639 378.107 401.157C378.89 401.692 385.413 401.945 393 401.734C405.143 401.397 407.116 401.082 412.626 398.599C423.381 393.752 429.371 385.308 430.636 373.211C431.916 360.966 425.719 349.584 414.89 344.286C406.901 340.378 399.473 339 386.403 339H376.174L375.837 365.25Z"/>
</mask>
<path fill-rule="evenodd" clip-rule="evenodd" d="M110.789 40.75C33.9818 143.538 21.2948 163.178 10.1438 196.561C2.23385 220.24 -0.497144 239.268 0.319856 265C0.938856 284.5 2.41885 293.935 7.44185 310.403C18.2168 345.729 45.4389 379.829 76.0229 396.313C98.7719 408.575 124.393 414.059 152 412.576C189.06 410.586 219.763 397.341 244.112 372.838C262.973 353.859 273.347 337.134 281.538 312.5C286.042 298.953 287.759 290.107 289.168 273.171C291.506 245.076 286.824 215.628 275.811 189.167C265.639 164.726 255.753 148.657 226.188 108.5C219.304 99.15 209.538 85.875 204.486 79C157.09 14.499 147.617 1.866 145.997 0.998001C144.971 0.449001 143.481 0 142.685 0C141.89 0 127.537 18.338 110.789 40.75ZM129.528 45.798C122.393 55.534 109.086 73.625 99.9558 86C82.9598 109.038 57.9998 143.682 57.9998 144.235C57.9998 144.405 73.0938 144.369 91.5418 144.155C122.563 143.796 125.232 143.9 127.042 145.538C129.764 148.001 129.485 151.646 126.354 154.548C123.754 156.957 123.402 157 106.104 157.003C96.4219 157.004 79.4539 157.298 68.3969 157.657L48.2949 158.308L41.7218 170.904C34.0938 185.52 28.3949 199.48 24.4319 213.251L21.6268 223.001L24.1648 225.751C25.9568 227.691 46.9168 255.566 50.4648 260.728C50.5508 260.853 53.5409 258.107 57.1089 254.626C67.1939 244.785 74.9798 243.796 86.2238 250.927C90.7878 253.822 96.3119 260.257 97.5319 264.101C97.9579 265.443 99.0699 266 101.324 266C113.293 266 122.271 274.434 123.866 287.175C124.481 292.086 124.64 292.295 129.113 294.049L133.726 295.859L134.908 291.913C137.256 284.075 146.131 277.073 153.782 277.022C159.608 276.983 164.298 279.883 174.5 289.832C193.478 308.34 196.647 311.002 199.676 310.978C207.756 310.914 212.071 299.743 206.166 294.173C196.473 285.029 165 253.443 165 252.859C165 252.471 166.165 250.769 167.589 249.077C169.336 247.001 171.081 246 172.956 246C175.745 246 177.343 247.409 210.5 279.115C214.9 283.322 219.479 287.062 220.677 287.426C223.617 288.321 229.181 285.857 231.832 282.486C234.401 279.22 234.625 274.437 232.453 269.218C230.736 265.091 168.543 202 166.192 202C165.45 202 161.616 204.627 157.671 207.838C144.404 218.64 126.291 231.703 122.983 232.856C118.693 234.352 110.78 234.313 105.616 232.771C103.097 232.019 99.5019 229.594 96.3509 226.521C91.9809 222.26 91.0279 220.643 90.0479 215.835C88.6359 208.907 90.3959 200.792 94.4669 195.455C95.9139 193.557 102.589 187.649 109.299 182.326C116.01 177.003 126.78 168.417 133.234 163.246C149.602 150.131 156.974 145.386 162.983 144.097C166.031 143.443 179.844 143 197.156 143C222.379 143 226.139 142.805 225.647 141.522C224.986 139.801 214.178 124.682 182.381 81C149.38 35.665 143.684 27.994 143.058 28.048C142.751 28.075 136.663 36.062 129.528 45.798ZM707.477 64.988C691.681 67.31 679.54 73.386 668.456 84.516C662.242 90.756 659.46 94.516 656.227 101.047C649.264 115.111 647.659 122.774 647.648 142C647.639 157.079 647.87 159.257 650.328 167.297C656.365 187.038 666.566 200.006 683.025 208.863C694.888 215.246 704.101 217.402 719.5 217.397C734.96 217.392 741.783 216.079 752.5 211.049C772.35 201.733 785.014 186.811 791.197 165.455C793.187 158.583 793.5 155.255 793.5 141C793.5 126.857 793.169 123.286 791.182 116C785.094 93.673 769.712 76.443 748.869 68.605C738.519 64.712 720.226 63.114 707.477 64.988ZM334.75 67.014C330.395 69.714 334.178 74 340.916 74C345.976 74 349.736 75.951 351.156 79.315C352.23 81.86 352.5 94.255 352.5 141C352.5 205.863 352.688 203.953 345.989 207.181C344.07 208.105 340.56 209.369 338.188 209.989C334.586 210.932 333.928 211.478 334.188 213.309L334.5 215.5L371 215.804C394.959 216.004 410.029 215.715 414.861 214.964C441.192 210.868 463.833 195.281 473.635 174.5C478.387 164.426 480.095 157.051 480.714 143.942C482.566 104.662 461.638 77.562 422.736 68.866C414.521 67.03 409.245 66.753 375 66.365C348.342 66.063 335.962 66.263 334.75 67.014ZM497.04 67.452C495.058 69.84 496.249 72.365 499.757 73.215C501.541 73.647 504.462 74.347 506.25 74.772C508.564 75.322 510.008 76.546 511.265 79.022C512.902 82.248 513.011 86.818 512.765 142.177C512.504 200.982 512.469 201.896 510.406 204.659C509.008 206.531 506.514 207.983 502.906 209.027C498.258 210.372 497.5 210.936 497.5 213.046V215.5H525.5H553.5V213.045C553.5 210.981 552.862 210.461 549.5 209.784C547.3 209.341 544.321 208.503 542.88 207.922C537.937 205.928 537.535 203.62 537.194 175.25L536.879 149L547.189 149.043L557.5 149.085L572.429 173.035C580.64 186.208 590.1 201.151 593.451 206.242L599.544 215.5L615.794 215.775C630.173 216.018 632.117 215.859 632.681 214.389C633.602 211.989 631.753 209.634 628.405 208.943C626.807 208.614 624.506 207.72 623.292 206.957C621.16 205.619 580.265 145.28 581.092 144.693C581.316 144.534 584.622 142.853 588.437 140.957C596.445 136.979 605.021 129.55 608.454 123.617C618.668 105.968 612.091 82.085 594.7 73.669C581.714 67.385 570.232 66.062 528.372 66.026C503.233 66.004 498.045 66.24 497.04 67.452ZM813.061 67.426C810.861 70.078 812.237 72.44 816.511 73.347C824.428 75.028 826.819 76.613 827.989 80.957C828.729 83.709 828.984 103.806 828.788 144.08L828.5 203.165L825.313 206.012C823.161 207.935 820.565 209.068 817.313 209.504C810.408 210.43 809.824 210.736 810.18 213.246L810.5 215.5H840.5H870.5V213.088C870.5 210.927 869.837 210.54 864.155 209.381C860.665 208.669 857.185 207.569 856.422 206.935C853.727 204.699 853.011 198.265 853.006 176.25L853 154L861.25 153.992C871.565 153.982 885.646 152.402 893.5 150.374C908.262 146.563 921.483 136.613 926.764 125.34C929.248 120.038 929.5 118.442 929.5 108C929.5 97.464 929.268 96.028 926.736 90.874C923.695 84.683 916.441 77.286 910.38 74.194C904.093 70.986 893.142 68.043 884 67.103C879.325 66.622 861.727 66.166 844.894 66.089C818.992 65.97 814.099 66.175 813.061 67.426ZM707.5 77.401C691.416 81.362 679.53 94.446 674.254 114C672.872 119.122 672.5 124.527 672.5 139.5C672.5 156.263 672.766 159.418 674.76 166.299C677.776 176.704 681.819 184.471 687.524 190.816C698.104 202.583 714.258 207.365 732.04 203.992C749.853 200.614 763.52 185.831 768.576 164.472C770.706 155.475 770.758 133.411 768.673 122.937C764.891 103.934 754.196 88.123 740.44 81.197C730.797 76.343 717.856 74.851 707.5 77.401ZM376.985 77.595C376.977 78.093 376.984 106.362 377 140.415C377.021 184.199 377.354 202.721 378.137 203.665C379.979 205.885 404.845 205.469 414.259 203.062C431.415 198.674 443.192 189.09 450.586 173.5C460.203 153.219 458.818 124.597 447.276 105.133C440.194 93.191 426.941 83.161 413.5 79.57C406.727 77.761 377.009 76.153 376.985 77.595ZM537 107.98V139.256L550.75 138.808C563.074 138.406 565.135 138.073 570.626 135.599C582.684 130.165 588.521 120.95 588.427 107.5C588.362 98.099 585.845 91.768 579.9 86.051C573.611 80.004 566.594 77.886 550.75 77.253L537 76.703V107.98ZM853 109.855V143L861.75 142.98C880.754 142.937 890.509 139.772 898.051 131.204C903.452 125.069 905.346 118.726 904.792 108.633C904.163 97.179 899.565 88.907 890.726 83.327C884.479 79.383 878.388 77.943 865.25 77.305L853 76.709V109.855ZM169.034 157.152C166.578 157.602 162.528 159.246 160.034 160.805C153.434 164.933 108.326 200.77 105.987 203.744C103.079 207.44 103.282 214.373 106.388 217.479C109.358 220.449 114.961 221.626 118.109 219.942C119.385 219.259 130.503 211.117 142.816 201.85C160.762 188.342 165.828 185 168.357 185C171.165 185 175.065 188.555 203.861 217.36L236.21 249.721L251.719 239.145L267.227 228.568L266.666 224.034C265.248 212.581 254.305 186.507 242.195 165.728L236.5 155.956L205 156.145C187.675 156.25 171.49 156.703 169.034 157.152ZM18.5248 251C16.7288 274.629 22.6148 302.409 34.3398 325.637C46.0328 348.799 67.2148 370.936 88.9998 382.761C115.443 397.113 151.748 400.181 181.24 390.553C213.177 380.128 240.645 355.641 256.956 323.053C267.124 302.74 272.669 273.307 270.563 250.832L269.848 243.195L263.67 247.848C260.272 250.406 254.275 254.687 250.344 257.36L243.196 262.219L245.076 266.36C250.5 278.306 245.037 292.229 232.62 298.103C229.254 299.696 225.488 300.999 224.25 300.999C222.509 301 222 301.573 222 303.532C222 307.233 219.703 312.129 215.977 316.374C211.991 320.913 208.9 322.592 202.867 323.497C198.555 324.144 198.183 324.445 197.061 328.192C196.401 330.394 194.057 334.153 191.852 336.545C186.723 342.109 180.937 344.379 173.284 343.83L167.5 343.415L156.715 355.635C143.782 370.288 140.289 372.442 130.471 371.817C125.348 371.491 123.175 370.799 119.779 368.412C114.822 364.928 111.328 359.27 110.416 353.25C109.863 349.595 109.433 349 107.347 349C103.857 349 97.6728 345.588 94.6498 341.996C93.2188 340.295 91.2739 336.724 90.3279 334.06C88.6829 329.429 88.4169 329.194 84.2849 328.729C75.7669 327.769 66.7188 318.979 65.4348 310.417C64.7938 306.143 64.6578 306 61.2018 306C48.6448 306 38.8089 292.303 41.9529 279.196L43.1669 274.137L33.0329 260.318C27.4599 252.718 22.0779 245.375 21.0739 244L19.2478 241.5L18.5248 251ZM66.3818 264.462C64.0308 266.916 60.2359 271.291 57.9489 274.184C54.1439 278.997 53.8328 279.828 54.2968 283.94C54.9118 289.403 59.3378 294 63.9818 294C66.4648 294 68.3649 292.385 75.9659 283.82C80.9349 278.221 84.9998 273.037 84.9998 272.3C84.9998 270.271 80.3818 263.381 77.8188 261.586C73.9608 258.883 71.0178 259.623 66.3818 264.462ZM334.384 264.442C332.988 268.079 334.416 269.481 340.261 270.211C346.972 271.049 349.487 272.213 351.203 275.273C352.928 278.349 352.797 393.055 351.063 398.311C349.529 402.956 348.128 403.988 340.717 405.926C335.207 407.366 334.5 407.833 334.5 410.026V412.5L363 412.791C392.79 413.095 409.393 412.134 419.5 409.521C436.394 405.154 449.74 394.3 454.016 381.453C456.883 372.835 456.469 362.668 452.952 355.395C448.305 345.782 436.047 336.974 423.169 333.995C417.474 332.677 417.44 331.903 423 330.118C427.65 328.626 435.667 322.459 439.514 317.415C446.682 308.017 448.179 291.101 442.674 281.707C437.625 273.091 428.104 267.233 414.792 264.552C403.801 262.339 335.227 262.244 334.384 264.442ZM466.163 263.878C465.427 264.345 464.977 265.779 465.163 267.066C465.454 269.088 466.358 269.561 471.813 270.544C483.26 272.607 482.41 268.662 483.072 322.776C483.604 366.231 483.792 370.035 485.757 377.154C488.696 387.804 492.318 394.459 498.293 400.188C507.586 409.098 517.757 412.535 538 413.606C567.392 415.161 586.876 404 594.049 381.5C594.975 378.595 595.488 363.815 595.922 327.5C596.419 285.941 596.768 277.123 597.989 275.269C599.787 272.537 600.896 272.046 608.5 270.618C613.669 269.647 614.547 269.161 614.837 267.109C615.023 265.798 614.573 264.345 613.837 263.878C613.102 263.412 601.62 263.024 588.321 263.015C567.66 263.002 563.914 263.229 562.571 264.571C559.216 267.927 561.203 269.647 569.815 270.84C578.23 272.007 579.589 272.861 580.977 277.858C582.387 282.932 582.329 365.854 580.911 373.526C579.568 380.788 575.857 388.301 571.665 392.245C569.924 393.883 565.575 396.636 562 398.362C555.871 401.321 554.843 401.5 544 401.5C530.199 401.5 524.869 399.829 517.908 393.317C512.428 388.191 508.56 380.23 507.067 371C505.636 362.157 505.639 280.335 507.07 276.229C508.349 272.56 509.41 272.034 518.492 270.567C523.832 269.705 525.565 269.021 525.825 267.671C526.686 263.198 525.398 262.999 495.628 263.015C480.157 263.024 466.898 263.412 466.163 263.878ZM627.409 264.377C626.032 267.965 627.414 269.46 632.83 270.24C640.005 271.272 641.739 272.382 643.025 276.766C643.78 279.341 644.023 298.821 643.81 339.5C643.555 388.067 643.249 398.99 642.079 401.273C640.958 403.46 639.203 404.488 633.774 406.137C627.829 407.943 626.932 408.519 627.195 410.364C627.498 412.486 627.68 412.5 654.891 412.5C679.724 412.5 682.384 412.339 683.369 410.778C684.878 408.384 683.416 407.204 677.594 406.117C671.817 405.037 669.169 402.643 667.953 397.401C667.455 395.255 667.037 382.813 667.024 369.75L667 346H676.255H685.51L700.505 369.733C720.467 401.327 727.039 411.35 728.381 412.249C728.997 412.66 736.475 412.885 745 412.749L760.5 412.5V410C760.5 407.858 759.733 407.254 755.144 405.784C752.198 404.841 749.13 403.523 748.327 402.856C747.231 401.947 708.611 344.728 707.248 341.995C707.11 341.718 709.707 340.44 713.018 339.156C726.514 333.923 736.111 324.787 740.151 313.328C743.246 304.549 742.502 291.491 738.489 284.141C733.601 275.188 725.575 269.673 711.564 265.64C705.135 263.79 701.062 263.574 666.243 263.239C632.866 262.918 627.913 263.064 627.409 264.377ZM774.938 264.575C772.751 267.21 775.068 269.406 780.928 270.252C788.003 271.272 789.743 272.396 791.021 276.766C791.771 279.332 792.016 299.009 791.806 339.677C791.504 398.006 791.47 398.896 789.399 401.677C787.889 403.705 785.658 404.923 781.479 406C775.424 407.561 773.962 409.045 776.028 411.534C777.804 413.674 881.136 413.746 882.91 411.608C884.913 409.195 887.237 381.804 885.656 379.25C884.023 376.612 881.914 378.231 879.139 384.25C877.554 387.688 874.512 392.122 872.379 394.104C865.546 400.452 861.996 401.281 839.5 401.776C819.853 402.21 819.465 402.178 817.5 400.004C815.598 397.898 815.501 396.4 815.52 369.296L815.54 340.801L831.008 340.948C850.009 341.128 851.581 341.756 854.368 350.284C855.947 355.116 856.604 356 858.618 356C860.993 356 861 355.963 861.092 343.75C861.143 337.013 861.256 327.675 861.342 323C861.498 314.584 861.476 314.5 859.028 314.5C857.031 314.5 856.254 315.321 854.976 318.78C851.557 328.037 845.684 330.293 826.336 329.785L815.5 329.5L815.428 301.75L815.356 274L833.928 274.02C865.498 274.054 870.568 275.706 876.162 287.78C877.875 291.476 879.597 295.175 879.99 296C880.383 296.825 881.655 297.642 882.817 297.815C885.913 298.276 886.291 295.356 885.335 278.345L884.5 263.5L830.38 263.241C781.895 263.01 776.121 263.149 774.938 264.575ZM962.662 263.75C961.889 265.02 956.6 279.154 944.608 312C922.895 371.467 913.014 397.504 911.214 400C910.223 401.375 906.817 403.767 903.645 405.316C898.94 407.613 897.935 408.533 898.189 410.316C898.495 412.467 898.799 412.504 918.5 412.783C929.5 412.939 939.513 412.818 940.75 412.514C942.303 412.133 943 411.22 943 409.569C943 407.522 942.385 407.082 938.75 406.527C929.246 405.076 926.24 402.12 927.342 395.309C927.681 393.214 930.556 384.393 933.729 375.707L939.5 359.915L965 359.888C985.104 359.866 990.654 360.14 991.23 361.18C993.192 364.73 1002.33 390.092 1003.28 394.624C1004.21 399.02 1004.12 400.174 1002.67 402.378C1001.74 403.803 999.743 405.223 998.237 405.534C990.12 407.213 989.5 407.532 989.5 410.037V412.5H1016.5H1043.5L1043.81 409.807C1044.09 407.395 1043.72 407.041 1040.31 406.423C1035.22 405.501 1031.33 403.443 1029.56 400.729C1027.41 397.441 1018.56 374.686 996.983 317C986.388 288.675 977.277 264.938 976.737 264.25C975.671 262.893 963.447 262.459 962.662 263.75ZM1035.61 264.566C1035.28 265.445 1035 266.781 1035 267.535C1035 269.042 1040.79 270.968 1045.5 271.026C1049.75 271.079 1051.76 272.989 1052.93 278.078C1053.53 280.693 1053.96 299.505 1053.98 324.119C1053.99 356.709 1054.33 367.665 1055.52 374.619C1060.09 401.336 1077.69 414.081 1109.84 413.965C1138.93 413.86 1154.28 404.902 1162.16 383.42C1164.51 377.025 1164.6 374.706 1165.25 304.272L1165.5 277.043L1168.15 274.395C1170.14 272.409 1172.51 271.466 1177.65 270.623C1184.34 269.525 1184.5 269.432 1184.5 266.5V263.5H1158.5H1132.5V266.492C1132.5 269.363 1132.74 269.528 1138.5 270.565C1145.4 271.806 1148.4 273.201 1149.63 275.722C1151.03 278.624 1151.36 366.365 1149.99 374.23C1147.78 386.999 1138.94 396.782 1126.02 400.789C1118.69 403.061 1103.35 403.007 1096.5 400.685C1089.92 398.452 1082.55 392.01 1079.34 385.688C1074.67 376.463 1074.07 369.294 1074.03 321.7C1074 284.643 1074.23 277.453 1075.5 274.995C1077.03 272.048 1077.28 271.95 1088 270.185C1092.16 269.501 1092.5 269.219 1092.5 266.472V263.5L1064.36 263.235C1039.36 262.999 1036.16 263.147 1035.61 264.566ZM375.555 300.75L375.692 328.5L383.035 328.798C404.061 329.65 417.536 322.863 421.101 309.625C422.887 302.992 421.876 292.178 418.936 286.465C413.982 276.837 404.795 273.032 386.459 273.012L375.418 273L375.555 300.75ZM667.236 304.121L667.5 335.5L674 335.809C682.676 336.222 694.55 334.551 700.226 332.117C714.558 325.974 721.05 310.4 716.088 294.064C713.481 285.481 708.7 280.126 700.148 276.209C695.169 273.929 692.871 273.571 680.736 273.183L666.971 272.743L667.236 304.121ZM90.9409 287.19C79.0189 300.312 77.9998 301.81 77.9998 306.214C77.9998 309.235 78.6819 310.835 80.9229 313.077C83.7869 315.941 86.3458 316.551 90.6498 315.396C92.8828 314.797 105.228 300.957 108.895 294.94C112.518 288.998 111.584 284.346 106.027 280.646C101.176 277.416 98.9399 278.385 90.9409 287.19ZM958.831 303.753C949.232 330.419 944.263 344.401 943.549 346.75L942.865 349H964.433C982.111 349 986 348.751 986 347.619C986 346.86 984.834 343.147 983.41 339.369C976.439 320.882 966 291.051 966 289.616C966 285.415 964.045 289.271 958.831 303.753ZM148.589 293.077C146.819 295.181 146 297.33 146 299.875C146 303.333 146.983 304.568 159.868 317.298C174.473 331.729 176.144 332.689 180.883 329.369C182.164 328.472 183.852 326.205 184.635 324.331C186.416 320.069 187.16 321.077 169.428 303.75C160.434 294.962 154.602 290 153.267 290C152.118 290 150.013 291.385 148.589 293.077ZM114.459 310.218C111.292 313.638 106.995 318.595 104.909 321.235C101.489 325.561 101.218 326.326 102.152 329.007C103.423 332.653 108.396 337 111.295 337C114.65 337 135.877 314.228 134.54 312.064C133.808 310.88 122.303 304 121.054 304C120.593 304 117.625 306.798 114.459 310.218ZM134.131 334.2C125.063 344.273 123.053 347.068 123.029 349.639C122.97 355.982 129.903 360.156 135.775 357.312C137.447 356.502 141.894 352.201 145.658 347.754C149.421 343.307 153.744 338.2 155.265 336.405L158.029 333.141L152.423 327.821C149.34 324.894 146.454 322.365 146.01 322.2C145.566 322.036 140.22 327.436 134.131 334.2ZM375.837 365.25C375.478 393.198 375.885 399.639 378.107 401.157C378.89 401.692 385.413 401.945 393 401.734C405.143 401.397 407.116 401.082 412.626 398.599C423.381 393.752 429.371 385.308 430.636 373.211C431.916 360.966 425.719 349.584 414.89 344.286C406.901 340.378 399.473 339 386.403 339H376.174L375.837 365.25Z" fill="#CBAC51" stroke="#DF9C23" stroke-width="2" mask="url(#path-1-inside-1_144_178)"/>
</svg>
